<?xml version="1.0" encoding="UTF-8"?>
<svg width="1200pt" height="1200pt" version="1.1" viewBox="0 0 1200 1200" xmlns="http://www.w3.org/2000/svg">
 <path d="m737.2 387.94c0-36.898-56.148-46.949-133.88-60.863-31.523-5.6484-81.801-14.637-99.062-23.961 17.262-9.3125 67.512-18.312 99.023-23.961 8.9492-1.6016 15.461-9.375 15.461-18.461l0.003906-223.19c0-10.363-8.3984-18.75-18.75-18.75s-18.75 8.3984-18.75 18.75v207.5c-69.613 12.625-118.45 23.699-118.45 58.102 0 36.898 56.164 46.961 133.9 60.875 31.512 5.6484 81.789 14.637 99.039 23.961-17.25 9.3242-67.523 18.324-99.062 23.961-77.727 13.926-133.88 23.977-133.88 60.875 0 36.898 56.148 46.949 133.88 60.875 31.523 5.6484 81.824 14.648 99.074 23.977-17.25 9.3125-67.512 18.312-99.051 23.961-77.738 13.926-133.9 23.977-133.9 60.887 0 36.898 56.164 46.961 133.89 60.875 31.523 5.6367 81.812 14.648 99.062 23.961-17.238 9.3242-67.539 18.336-99.086 23.988-77.711 13.926-133.86 23.977-133.86 60.875s56.164 46.961 133.89 60.887c29.762 5.3359 76.227 13.648 95.836 22.398-18.164 7.9609-57.25 18.512-95.812 25.387-8.9492 1.5859-15.461 9.375-15.461 18.461v223.2c0 10.352 8.3984 18.75 18.75 18.75s18.75-8.3984 18.75-18.75v-207.59c118.45-23 118.45-47.25 118.45-57.863 0-36.898-56.164-46.961-133.89-60.887-31.523-5.6484-81.812-14.648-99.062-23.977 17.25-9.3125 67.512-18.312 99.039-23.961 77.738-13.926 133.91-23.988 133.91-60.898 0-36.898-56.164-46.961-133.89-60.875-31.523-5.6367-81.812-14.648-99.062-23.961 17.25-9.3242 67.539-18.336 99.074-23.977 77.727-13.926 133.88-23.977 133.88-60.875 0-36.914-56.164-46.961-133.9-60.887-31.512-5.6484-81.789-14.648-99.039-23.961 17.25-9.3125 67.512-18.312 99.039-23.961 77.719-13.934 133.89-23.996 133.89-60.895z"/>
</svg>
