<?xml version="1.0" encoding="UTF-8"?>
<svg width="1200pt" height="1200pt" version="1.1" viewBox="0 0 1200 1200" xmlns="http://www.w3.org/2000/svg">
 <path d="m910.62 584.82c-2.0234-2.0234-4.0469-4.0469-8.0938-4.0469 2.0234-4.0469 2.0234-6.0703 0-8.0938-6.0703-12.141-46.543 0-80.945 18.211l-12.141 6.0703c4.0469-4.0469 8.0938-8.0938 12.141-14.164 24.285-32.379 44.52-68.801 32.379-76.898h-8.0977c0-4.0469 0-6.0703-4.0469-8.0938-8.0938-6.0703-24.285 6.0703-42.496 22.258 6.0703-24.285 6.0703-46.543-4.0469-48.566h-6.0703c-2.0234-4.0469-2.0234-6.0703-6.0703-8.0938-10.117-4.0469-22.258 12.141-34.402 36.426-4.0469-26.309-10.117-46.543-20.234-46.543-2.0234 0-4.0469 2.0234-6.0703 4.0469-2.0234-2.0234-4.0469-4.0469-6.0703-4.0469-6.0703 0-10.117 6.0703-12.141 14.164-4.0469-8.0938-8.0938-14.164-12.141-14.164-2.0234 0-4.0469 2.0234-8.0938 4.0469-2.0234-2.0234-4.0469-4.0469-8.0938-4.0469-6.0703 0-10.117 6.0703-12.141 14.164-4.0469-10.117-8.0938-14.164-14.164-14.164-2.0234 0-4.0469 2.0234-6.0703 4.0469-2.0234-2.0234-4.0469-4.0469-6.0703-4.0469-6.0703 0-10.117 6.0703-12.141 14.164-4.0469-8.0938-8.0938-14.164-12.141-14.164-2.0234 0-4.0469 2.0234-8.0938 4.0469-2.0234-2.0234-4.0469-4.0469-8.0938-4.0469-6.0703 0-10.117 6.0703-14.164 16.188-4.0469-10.117-8.0938-16.188-14.164-16.188-2.0234 0-4.0469 2.0234-8.0938 4.0469-2.0234-2.0234-4.0469-4.0469-8.0938-4.0469-6.0703 0-10.117 6.0703-12.141 14.164-4.0469-8.0938-8.0938-14.164-12.141-14.164-2.0234 0-4.0469 2.0234-6.0703 4.0469-2.0234-2.0234-4.0469-4.0469-6.0703-4.0469-6.0703 0-10.117 6.0703-12.141 14.164-4.0469-10.117-8.0938-14.164-14.164-14.164-2.0234 0-4.0469 2.0234-8.0938 4.0469-2.0234-2.0234-4.0469-4.0469-8.0938-4.0469-6.0703 0-10.117 6.0703-12.141 14.164-4.0469-8.0938-8.0938-14.164-12.141-14.164-2.0234 0-4.0469 2.0234-6.0703 4.0469 0 0-2.0234 0-2.0234-2.0234l-4.0469-4.0469h-6.0703c-2.0234-4.0469-2.0234-6.0703-6.0703-8.0938 0 0 0-2.0234-2.0234-2.0234-2.0234-2.0234-4.0469-2.0234-6.0703-2.0234 0-4.0469 0-6.0703-4.0469-8.0938-2.0234-2.0234-6.0703-2.0234-10.117 0 4.0469-6.0703 4.0469-10.117 2.0234-14.164-2.0234-2.0234-4.0469-4.0469-8.0938-4.0469 2.0234-4.0469 2.0234-6.0703 0-8.0938-6.0703-12.141-46.543 0-80.945 18.211-34.402 18.211-66.777 44.52-60.707 56.66 2.0234 2.0234 4.0469 4.0469 8.0938 4.0469-2.0234 4.0469-2.0234 6.0703 0 8.0938 6.0703 12.141 46.543 0 80.945-18.211 4.0469-2.0234 8.0938-4.0469 12.141-6.0703-4.0469 4.0469-8.0938 8.0938-10.117 14.164-24.285 32.379-42.496 66.777-32.379 76.898 2.0234 2.0234 4.0469 2.0234 6.0703 2.0234 0 4.0469 0 6.0703 4.0469 8.0938 8.0938 6.0703 24.285-6.0703 42.496-22.258-6.0703 24.285-6.0703 46.543 4.0469 48.566h6.0703c2.0234 4.0469 2.0234 6.0703 6.0703 8.0938 10.117 4.0469 22.258-12.141 34.402-34.402 4.0469 26.309 10.117 46.543 20.234 46.543 2.0234 0 4.0469-2.0234 6.0703-4.0469 2.0234 2.0234 4.0469 4.0469 6.0703 4.0469 6.0703 0 10.117-6.0703 12.141-14.164 4.0469 8.0938 8.0938 14.164 12.141 14.164 2.0234 0 4.0469-2.0234 8.0938-4.0469 2.0234 2.0234 4.0469 4.0469 8.0938 4.0469 6.0703 0 10.117-6.0703 12.141-14.164 4.0469 10.117 8.0938 14.164 14.164 14.164 2.0234 0 4.0469-2.0234 6.0703-4.0469 2.0234 2.0234 4.0469 4.0469 6.0703 4.0469 6.0703 0 10.117-6.0703 12.141-14.164 4.0469 8.0938 8.0938 14.164 12.141 14.164 2.0234 0 4.0469-2.0234 8.0938-4.0469 2.0234 2.0234 4.0469 4.0469 8.0938 4.0469 6.0703 0 10.117-6.0703 14.164-16.188 4.0469 10.117 8.0938 18.211 14.164 18.211 2.0234 0 4.0469-2.0234 8.0938-4.0469 2.0234 2.0234 4.0469 4.0469 8.0938 4.0469 6.0703 0 10.117-6.0703 12.141-14.164 4.0469 8.0938 8.0938 14.164 12.141 14.164 2.0234 0 4.0469-2.0234 6.0703-4.0469 2.0234 2.0234 4.0469 4.0469 6.0703 4.0469 6.0703 0 10.117-6.0703 12.141-14.164 4.0469 10.117 8.0938 14.164 14.164 14.164 2.0234 0 4.0469-2.0234 8.0938-4.0469 2.0234 2.0234 4.0469 4.0469 8.0938 4.0469 6.0703 0 10.117-6.0703 12.141-14.164 4.0469 8.0938 8.0938 14.164 12.141 14.164 2.0234 0 4.0469-2.0234 6.0703-4.0469 0 0 2.0234 0 2.0234 2.0234h2.0234l2.0234 2.0234h6.0703c2.0234 4.0469 2.0234 6.0703 6.0703 8.0938 0 0 0 2.0234 2.0234 2.0234 2.0234 2.0234 4.0469 2.0234 6.0703 2.0234 0 4.0469 0 6.0703 4.0469 8.0938 2.0234 2.0234 6.0703 2.0234 10.117 0-4.0469 6.0703-4.0469 10.117-2.0234 14.164 2.0234 2.0234 4.0469 4.0469 8.0938 4.0469-2.0234 4.0469-2.0234 6.0703 0 8.0938 6.0703 12.141 46.543 0 80.945-18.211 36.426-22.258 68.805-46.543 60.711-60.707zm-70.828-82.969c2.0234 0 2.0234 2.0234 2.0234 6.0703-14.164 6.0703-32.379 24.285-50.59 44.52 2.0234-6.0703 4.0469-14.164 6.0703-20.234 20.238-22.262 38.449-32.379 42.496-30.355zm-54.637 66.777c2.0234-2.0234 4.0469-4.0469 6.0703-8.0938 20.234-26.309 38.449-42.496 50.59-46.543-6.0703 12.141-16.188 32.379-36.426 58.684-20.234 26.309-38.449 42.496-50.59 46.543 0-2.0234 0-2.0234 2.0234-4.0469 10.121-10.117 20.238-26.305 28.332-46.543zm-32.379 44.52c-4.0469 4.0469-6.0703 6.0703-8.0938 6.0703 0-2.0234 0-6.0703 2.0234-12.141 8.0938-10.117 16.188-26.309 24.285-42.496 2.0234-4.0469 6.0703-8.0938 8.0938-12.141 4.0469-4.0469 6.0703-8.0938 10.117-12.141-2.0234 4.0469-2.0234 8.0938-4.0469 14.164-2.0234 4.0469-4.0469 8.0938-4.0469 12.141-14.164 16.191-22.262 32.379-28.332 46.543zm-10.117-10.117s-2.0234 2.0234-2.0234 2.0234c6.0703-12.141 10.117-34.402 10.117-58.684 0-2.0234 0-2.0234 2.0234-4.0469 12.141-30.355 24.285-50.59 32.379-60.707 0 12.141-2.0234 36.426-14.164 64.754-2.0234 4.0469-4.0469 8.0938-6.0703 12.141-8.0977 18.211-18.215 32.379-22.262 44.52zm-16.188 4.0469c6.0703-14.164 10.117-38.449 10.117-64.754 0-2.0234 2.0234-4.0469 2.0234-6.0703 2.0234-6.0703 4.0469-10.117 6.0703-14.164v14.164 10.117c-8.0938 22.258-12.141 46.543-12.141 60.707-2.0234 2.0234-4.0469 4.0469-4.0469 4.0469 0-2.0234 0-2.0234-2.0234-4.0469zm0-14.164c0-8.0938 2.0234-18.211 4.0469-28.332 0 10.117-2.0234 20.238-4.0469 28.332zm18.211-24.285c-2.0234 10.117-2.0234 18.211-4.0469 26.309 0-8.0938 2.0234-16.188 4.0469-26.309zm50.59-91.062c6.0703 2.0234 6.0703 22.258-2.0234 52.613-4.0469 6.0703-10.117 10.117-14.164 16.188 8.0938-26.309 14.164-52.613 12.141-68.801h4.0469zm-14.164-6.0703c2.0234 0 2.0234 2.0234 2.0234 4.0469-10.117 8.0938-24.285 30.355-32.379 56.66v-20.234c12.145-28.332 26.309-42.496 30.355-40.473zm-50.59-10.117c6.0703 0 12.141 18.211 16.188 50.59-2.0234 6.0703-6.0703 12.141-8.0938 18.211 0-26.309-4.0469-52.613-12.141-64.754 0-4.0469 2.0234-4.0469 4.0469-4.0469zm-14.164 0c2.0234 0 2.0234 2.0234 4.0469 2.0234-4.0469 8.0938-8.0938 20.234-10.117 34.402-2.0234-8.0938-2.0234-14.164-4.0469-20.234 4.043-10.121 6.0664-16.191 10.117-16.191zm-26.309 0c4.0469 0 6.0703 6.0703 10.117 16.188-2.0234 6.0703-4.0469 14.164-4.0469 24.285-2.0234-16.188-6.0703-28.332-10.117-36.426 2.0234-4.0469 4.0469-4.0469 4.0469-4.0469zm-14.164 0c2.0234 0 2.0234 2.0234 4.0469 4.0469-4.0469 8.0938-8.0938 22.258-10.117 38.449-2.0234-10.117-2.0234-18.211-4.0469-24.285 4.0469-12.141 8.0938-18.211 10.117-18.211zm-24.285-2.0234c4.0469 0 8.0938 6.0703 10.117 18.211-2.0234 6.0703-4.0469 14.164-4.0469 22.258-2.0234-16.188-6.0703-30.355-10.117-38.449 0-2.0195 2.0234-2.0195 4.0469-2.0195zm-14.164 0c2.0234 0 2.0234 2.0234 4.0469 2.0234-4.0469 8.0938-8.0938 20.234-10.117 34.402-2.0234-8.0938-2.0234-14.164-4.0469-20.234 2.0234-10.121 6.0703-16.191 10.117-16.191zm-26.309 0c4.0469 0 6.0703 6.0703 10.117 16.188-2.0234 6.0703-4.0469 14.164-4.0469 24.285-2.0234-16.188-6.0703-28.332-10.117-36.426l4.0469-4.0469zm-14.164 0c2.0234 0 2.0234 2.0234 4.0469 4.0469-6.0703 10.117-10.117 28.332-10.117 48.566 0-12.141-2.0234-22.258-4.0469-32.379 2.0234-12.141 8.0938-20.234 10.117-20.234zm-10.117 74.875c0 16.188-2.0234 30.355-4.0469 40.473-2.0234-12.141-2.0234-24.285-2.0234-40.473s2.0234-30.355 2.0234-40.473c2.0234 10.117 4.0469 24.281 4.0469 40.473zm-16.191-74.875c4.0469 0 8.0938 8.0938 12.141 20.234-2.0234 8.0938-4.0469 20.234-4.0469 30.355-2.0234-20.234-6.0703-38.449-10.117-48.566-2.0234 0 0-2.0234 2.0234-2.0234zm-14.164 0c2.0234 0 2.0234 2.0234 4.0469 4.0469-4.0469 8.0938-8.0938 22.258-10.117 36.426-2.0234-8.0938-2.0234-16.188-4.0469-24.285 2.0234-10.117 6.0703-16.188 10.117-16.188zm-26.309 0c4.0469 0 6.0703 6.0703 10.117 16.188-2.0234 6.0703-2.0234 12.141-4.0469 20.234-2.0234-14.164-6.0703-26.309-10.117-34.402 2.0234-2.0195 4.0469-2.0195 4.0469-2.0195zm-12.141 0c2.0234 0 2.0234 2.0234 4.0469 2.0234-4.0469 8.0938-8.0938 20.234-10.117 36.426 0-8.0938-2.0234-16.188-4.0469-22.258 2.0234-10.121 6.0703-16.191 10.117-16.191zm-26.305-2.0234c4.0469 0 8.0938 6.0703 10.117 18.211-2.0234 8.0938-4.0469 16.188-4.0469 24.285-2.0234-16.188-6.0703-30.355-10.117-40.473 0 0 2.0234-2.0234 4.0469-2.0234zm-14.168 0c2.0234 0 2.0234 2.0234 4.0469 4.0469-4.0469 8.0938-8.0938 22.258-10.117 36.426-2.0234-8.0938-2.0234-16.188-4.0469-24.285 2.0234-10.117 6.0703-16.188 10.117-16.188zm-26.305 0c4.0469 0 6.0703 6.0703 10.117 16.188-2.0234 6.0703-2.0234 12.141-4.0469 20.234-2.0234-14.164-6.0703-26.309-10.117-34.402 2.0234 0.003906 4.0469-2.0195 4.0469-2.0195zm-22.262 74.875c-2.0234 6.0703-4.0469 10.117-6.0703 14.164v-14.164-10.117c8.0938-22.258 12.141-46.543 12.141-60.707 2.0234-2.0234 4.0469-4.0469 4.0469-4.0469 0 2.0234 2.0234 2.0234 2.0234 4.0469-6.0703 14.16-10.117 38.445-10.117 64.75-2.0234 2.0234-2.0234 4.0469-2.0234 6.0742zm-14.164-6.0742c-10.117 30.355-24.285 50.59-32.379 60.707 0-12.141 2.0234-36.426 14.164-64.754 2.0234-4.0469 4.0469-8.0938 4.0469-12.141 10.117-16.188 20.234-30.355 24.285-42.496l2.0234-2.0234c-6.0703 12.141-10.117 34.402-10.117 58.684l-2.0234 2.0234zm-30.355-26.305c-2.0234 2.0234-4.0469 4.0469-6.0703 8.0938-20.234 26.309-38.449 40.473-48.566 46.543 4.0469-12.141 14.164-32.379 32.379-58.684 20.234-26.309 38.449-40.473 48.566-46.543 0 2.0234 0 2.0234-2.0234 4.0469-6.0703 10.117-16.188 28.328-24.285 46.543zm0 16.188c2.0234-4.0469 4.0469-8.0938 4.0469-12.141 12.141-16.188 22.258-32.379 26.309-46.543 4.0469-4.0469 6.0703-6.0703 8.0938-6.0703 0 2.0234 0 6.0703-2.0234 12.141-8.0938 10.117-16.188 26.309-24.285 42.496-2.0234 4.0469-6.0703 8.0938-8.0938 10.117-4.0469 4.0469-6.0703 8.0938-10.117 12.141 2.0234-4.0469 4.0469-8.0938 6.0703-12.141zm44.52-40.473c0 8.0938-2.0234 16.188-4.0469 26.309 0-12.141 2.0234-20.238 4.0469-26.309zm12.145 0c0 8.0938-2.0234 18.211-4.0469 28.332-0.003906-10.117 2.0234-20.238 4.0469-28.332zm-12.145-20.234c-2.0234 0 0 0 0 0zm-10.117-8.0938c-2.0234 0-2.0234 0 0 0zm-155.82 34.398c-4.0469-6.0703 16.188-28.332 58.684-50.59 42.496-22.258 70.828-26.309 74.875-20.234 0 2.0234 0 4.0469-2.0234 6.0703-16.188 0-42.496 10.117-66.777 24.285-24.285 14.164-48.566 30.355-56.66 44.52-6.0742-2.0273-8.0977-2.0273-8.0977-4.0508zm127.48-60.707c-8.0938 10.117-26.309 24.285-52.613 38.449-26.309 14.164-48.566 22.258-60.707 22.258 8.0938-10.117 26.309-24.285 52.613-38.449 26.309-14.164 46.543-20.234 60.707-22.258zm-46.543 52.613c-40.473 22.258-70.828 26.309-74.875 20.234 0-2.0234 0-4.0469 2.0234-6.0703 16.188 0 42.496-10.117 66.777-24.285 24.285-14.164 48.566-30.355 56.66-44.52 4.0469 0 6.0703 0 6.0703 2.0234 2.0234 2.0234-2.0234 8.0938-10.117 16.188-6.0703 4.0469-12.141 8.0938-18.211 14.164-6.0664 10.125-16.184 16.195-28.328 22.266zm-24.281 82.969c-6.0703-4.0469 4.0469-32.379 32.379-68.801 10.117-12.141 18.211-22.258 26.309-28.332 6.0703-4.0469 12.141-10.117 18.211-14.164 8.0938-6.0703 14.164-8.0938 16.188-6.0703 2.0234 0 2.0234 2.0234 2.0234 6.0703-14.164 6.0703-36.426 26.309-54.637 50.59-18.211 22.258-32.379 48.566-34.402 62.73-4.0469-2.0234-6.0703-2.0234-6.0703-2.0234zm10.117 10.117c-2.0234 0-2.0234-2.0234-2.0234-6.0703 14.164-4.0469 32.379-24.285 50.59-44.52-2.0234 6.0703-4.0469 14.164-6.0703 20.234-22.258 24.285-38.449 32.379-42.496 30.355zm44.52 24.285c-6.0703-2.0234-6.0703-22.258 2.0234-52.613 4.0469-6.0703 10.117-10.117 14.164-16.188-8.0938 26.309-14.164 52.613-12.141 66.777-2.0234 2.0234-4.0469 2.0234-4.0469 2.0234zm12.141 6.0703c-2.0234 0-2.0234-2.0234-2.0234-4.0469 10.117-8.0938 22.258-30.355 32.379-56.66v20.234c-12.141 28.332-24.281 42.496-30.355 40.473zm52.617 10.117c-6.0703 0-12.141-18.211-16.188-48.566 2.0234-6.0703 4.0469-12.141 8.0938-18.211 0 26.309 4.0469 52.613 12.141 64.754-2.0234 2.0234-4.0469 2.0234-4.0469 2.0234zm-4.0508-74.871v-6.0703c6.0703-20.234 12.141-42.496 12.141-56.66 4.0469 12.141 8.0938 34.402 8.0938 62.73 0 32.379-4.0469 56.66-10.117 66.777-6.0664-10.117-10.117-34.402-10.117-66.777zm16.191 74.871c-2.0234 0-2.0234-2.0234-4.0469-2.0234 4.0469-8.0938 8.0938-20.234 10.117-34.402 2.0234 8.0938 2.0234 14.164 4.0469 20.234-2.0234 10.121-6.0703 16.191-10.117 16.191zm14.164-26.305c-2.0234-12.141-4.0469-28.332-4.0469-48.566 0-20.234 2.0234-34.402 4.0469-48.566 2.0234 12.141 4.0469 28.332 4.0469 48.566 0 20.234-2.0234 36.422-4.0469 48.566zm12.141 26.305c-4.0469 0-6.0703-6.0703-10.117-16.188 2.0234-6.0703 4.0469-14.164 4.0469-24.285 2.0234 16.188 6.0703 28.332 10.117 36.426-2.0234 4.0469-4.0469 4.0469-4.0469 4.0469zm-2.0234-74.871c0-32.379 4.0469-54.637 10.117-66.777 6.0703 12.141 10.117 34.402 10.117 66.777 0 32.379-4.0469 54.637-10.117 66.777-6.0703-12.141-10.117-34.402-10.117-66.777zm16.191 74.871c-2.0234 0-2.0234-2.0234-4.0469-4.0469 4.0469-8.0938 8.0938-22.258 10.117-38.449 0 10.117 2.0234 18.211 4.0469 24.285-4.0469 12.141-8.0938 18.211-10.117 18.211zm8.0938-72.848c0-18.211 2.0234-34.402 4.0469-46.543 2.0234 12.141 4.0469 28.332 4.0469 44.52 0 18.211-2.0234 34.402-4.0469 46.543-2.0234-10.121-4.0469-26.309-4.0469-44.52zm18.211 74.871c-4.0469 0-8.0938-6.0703-10.117-18.211 2.0234-6.0703 4.0469-14.164 4.0469-22.258 2.0234 16.188 6.0703 30.355 10.117 36.426-2.0234 4.043-4.0469 4.043-4.0469 4.043zm-4.0469-74.871c0-32.379 4.0469-56.66 10.117-66.777 6.0703 12.141 10.117 34.402 10.117 66.777 0 32.379-4.0469 56.66-10.117 66.777-6.0703-10.117-10.117-34.402-10.117-66.777zm16.188 74.871c-2.0234 0-2.0234-2.0234-4.0469-2.0234 4.0469-8.0938 8.0938-20.234 10.117-34.402 2.0234 8.0938 2.0234 14.164 4.0469 20.234-2.0195 10.121-6.0664 16.191-10.117 16.191zm12.145-26.305c-2.0234-12.141-4.0469-28.332-4.0469-48.566s2.0234-34.402 4.0469-48.566c2.0234 12.141 4.0469 28.332 4.0469 48.566s0 34.398-4.0469 48.566zm14.164 26.305c-4.0469 0-6.0703-6.0703-10.117-16.188 2.0234-6.0703 4.0469-14.164 4.0469-24.285 2.0234 16.188 6.0703 28.332 10.117 36.426-2.0234 2.0234-4.0469 4.0469-4.0469 4.0469zm-4.0469-74.871c0-32.379 4.0469-54.637 10.117-66.777 6.0703 12.141 10.117 34.402 10.117 66.777 0 32.379-4.0469 54.637-10.117 66.777-4.0469-12.141-10.117-34.402-10.117-66.777zm18.211 74.871c-2.0234 0-2.0234-2.0234-4.0469-4.0469 6.0703-10.117 10.117-28.332 10.117-48.566 0 12.141 2.0234 22.258 4.0469 30.355-4.0469 14.164-8.0938 22.258-10.117 22.258zm26.309 2.0234c-4.0469 0-8.0938-8.0938-12.141-22.258 2.0234-10.117 4.0469-20.234 4.0469-32.379 2.0234 20.234 6.0703 40.473 10.117 50.59 2.0234 2.0234 0 4.0469-2.0234 4.0469zm-2.0234-76.895c0-32.379 4.0469-54.637 10.117-66.777 6.0703 12.141 10.117 34.402 10.117 66.777 0 32.379-4.0469 54.637-10.117 66.777-6.0703-12.141-10.117-34.402-10.117-66.777zm16.188 76.895c-2.0234 0-2.0234-2.0234-4.0469-4.0469 4.0469-8.0938 8.0938-22.258 10.117-36.426 2.0234 8.0938 2.0234 16.188 4.0469 24.285-2.0234 10.117-6.0703 16.188-10.117 16.188zm10.117-76.895c0-20.234 2.0234-36.426 4.0469-48.566 2.0234 12.141 4.0469 28.332 4.0469 48.566s-2.0234 36.426-4.0469 48.566c-4.0469-12.145-4.0469-28.332-4.0469-48.566zm16.191 76.895c-4.0469 0-6.0703-6.0703-10.117-16.188 2.0234-6.0703 4.0469-12.141 4.0469-20.234 2.0234 14.164 6.0703 26.309 10.117 34.402-2.0234-0.003906-4.0469 2.0195-4.0469 2.0195zm-4.0469-76.895c0-32.379 4.0469-56.66 10.117-66.777 6.0703 12.141 10.117 34.402 10.117 66.777 0 32.379-4.0469 56.66-10.117 66.777-4.0469-10.117-10.117-34.402-10.117-66.777zm18.211 76.895c-2.0234 0-2.0234-2.0234-4.0469-2.0234 4.0469-8.0938 8.0938-20.234 10.117-36.426 0 8.0938 2.0234 16.188 4.0469 22.258-4.0469 8.0977-8.0938 16.191-10.117 16.191zm8.0938-74.871c0-18.211 2.0234-34.402 4.0469-46.543 2.0234 12.141 4.0469 28.332 4.0469 46.543 0 18.211-2.0234 34.402-4.0469 46.543-2.0234-14.168-4.0469-28.332-4.0469-46.543zm16.191 74.871c-4.0469 0-8.0938-6.0703-10.117-18.211 2.0234-8.0938 4.0469-16.188 4.0469-24.285 2.0234 16.188 6.0703 32.379 10.117 40.473 0 0-2.0234 2.0234-4.0469 2.0234zm-2.0234-74.871c0-32.379 4.0469-54.637 10.117-66.777 6.0703 12.141 10.117 34.402 10.117 66.777 0 32.379-4.0469 54.637-10.117 66.777-6.0703-12.141-10.117-34.402-10.117-66.777zm16.188 74.871c-2.0234 0-2.0234-2.0234-4.0469-4.0469 4.0469-8.0938 8.0938-22.258 10.117-36.426 2.0234 8.0938 2.0234 16.188 4.0469 24.285-2.0234 10.117-6.0703 16.188-10.117 16.188zm10.117-74.871c0-20.234 2.0234-36.426 4.0469-48.566 2.0234 12.141 4.0469 28.332 4.0469 48.566 0 20.234-2.0234 36.426-4.0469 48.566-4.0469-14.168-4.0469-30.355-4.0469-48.566zm16.191 74.871c-4.0469 0-6.0703-6.0703-10.117-16.188 2.0234-6.0703 4.0469-12.141 4.0469-20.234 2.0234 14.164 6.0703 26.309 10.117 34.402-2.0234 2.0195-2.0234 2.0195-4.0469 2.0195zm-4.0508-74.871c0-32.379 4.0469-56.66 10.117-66.777 6.0703 12.141 10.117 34.402 10.117 66.777v6.0703c-6.0703 20.234-12.141 42.496-12.141 56.66-4.043-12.141-8.0938-34.402-8.0938-62.73zm28.332 76.895v0 0zm8.0938 8.0938c2.0234 0 2.0234 0 0 0 2.0234 0 2.0234 0 0 0 2.0234 0 2.0234 0 0 0zm8.0938 10.121c-2.0234-2.0234-2.0234-4.0469-2.0234-6.0703 14.164-6.0703 36.426-26.309 54.637-50.59 18.211-22.258 32.379-48.566 34.402-64.754h4.0469c6.0703 4.0469-4.0469 32.379-32.379 70.828-10.117 12.141-18.211 22.258-26.309 28.332-6.0703 4.0469-12.141 10.117-18.211 14.164-6.0664 8.0898-12.141 10.113-14.164 8.0898zm8.0977 16.188c-2.0234-2.0234 2.0234-10.117 10.117-16.188 6.0703-4.0469 12.141-8.0938 18.211-14.164 8.0938-6.0703 18.211-12.141 30.355-18.211 40.473-22.258 70.828-28.332 74.875-20.234 0 2.0234 0 4.0469-2.0234 6.0703-16.188 0-42.496 10.117-66.777 24.285-26.309 14.164-48.566 30.355-56.66 44.52-4.0508-4.0547-6.0742-6.0781-8.0977-6.0781zm129.51-60.707c-8.0938 10.117-26.309 24.285-52.613 40.473-26.309 14.164-48.566 22.258-60.707 22.258 8.0938-10.117 26.309-24.285 52.613-40.473 24.285-14.164 46.543-22.258 60.707-22.258zm-46.543 52.613c-40.473 22.258-70.828 28.332-74.875 20.234 0-2.0234 0-4.0469 2.0234-6.0703 16.188 0 42.496-10.117 66.777-24.285 26.309-14.164 48.566-30.355 56.66-44.52 4.0469 0 6.0703 0 6.0703 2.0234 6.0781 8.0977-16.184 30.355-56.656 52.617z"/>
</svg>
