<?xml version="1.0" encoding="UTF-8"?>
<svg width="1200pt" height="1200pt" version="1.1" viewBox="0 0 1200 1200" xmlns="http://www.w3.org/2000/svg">
 <path d="m287.1 123.94c-42.094 1.543-79.184 32.742-86.484 75.762-8.3438 49.168 25.188 96.371 74.355 104.71 13.613 2.3086 27 1.1445 39.551-2.4023l147.36 181.05c-13.777 19.703-23.676 42.547-27.949 67.734-6.6484 39.164 1.0391 77.555 19.102 109.86l-178.3 115.37c-14.887-12.832-33.004-22.219-53.672-25.723-60.75-10.301-119.18 31.191-129.49 91.934-10.309 60.742 31.184 119.19 91.934 129.49s118.95-31.25 129.26-91.992c3.1758-18.703 0.91797-36.984-4.7461-53.906l183.4-118.71c22.211 18.844 49.41 32.297 80.098 37.5 23.941 4.0586 47.609 2.6719 69.785-3.0469l92.695 158.55c-14.281 14.57-24.48 33.363-28.125 54.844-9.5234 56.113 28.664 110.19 84.785 119.71 56.121 9.5156 110.3-28.906 119.82-85.02 9.5234-56.113-28.957-110.07-85.078-119.59-13.254-2.2461-26.34-1.6328-38.789 1.0547l-90.586-154.69c22.355-15.621 40.988-36.586 53.672-61.406l106.17 34.277c-0.92578 44.199 30.656 84.227 75.41 91.816 49.168 8.3359 96.363-25.363 104.71-74.531s-25.129-96.371-74.297-104.71c-32.664-5.5391-64.316 7.5781-84.492 31.289l-110.51-35.566c3.6328-32.434-2.2617-64.031-15.762-91.758l180-127.85c14.371 12.082 31.684 20.977 51.387 24.316 59.203 10.039 116.11-30.395 126.15-89.59 10.047-59.195-30.328-116.11-89.531-126.15-59.203-10.039-116.16 30.395-126.21 89.59-3.0703 18.078-0.92578 35.766 4.5117 52.148l-181.58 129.02c-23.465-22.43-53.586-38.375-87.832-44.18-44.711-7.582-88.434 3.5078-123.22 27.422l-140.8-173.03c7.8906-10.875 13.73-23.398 16.113-37.441 8.3438-49.168-25.363-96.664-74.531-105-6.1445-1.043-12.27-1.3906-18.281-1.1719zm8.2617 60.352c17.215 2.918 28.289 18.559 25.371 35.742s-18.527 28.113-35.742 25.195c-17.215-2.918-28.113-18.324-25.195-35.508s18.352-28.348 35.566-25.43zm703.42 60.762c3.3008-0.097656 6.6719 0.125 10.078 0.70312 27.25 4.6211 45.051 29.738 40.43 56.953-4.6172 27.211-29.703 45.051-56.953 40.43-27.246-4.6211-45.047-29.742-40.43-56.953 4.043-23.812 23.758-40.441 46.875-41.133zm-402.95 225.59c7.207-0.23828 14.562 0.20312 21.973 1.4648 59.289 10.055 98.707 65.684 88.652 124.92-10.055 59.238-65.574 98.473-124.86 88.418-59.289-10.055-98.531-65.391-88.477-124.63 8.7969-51.832 52.27-88.539 102.71-90.176zm355.78 190.43c17.215 2.918 28.113 18.266 25.195 35.449-2.918 17.184-18.293 28.348-35.508 25.43-17.215-2.918-28.289-18.559-25.371-35.742s18.469-28.055 35.684-25.137zm-751.23 147.66c3.4922-0.10547 7.0078 0.14844 10.605 0.75781 28.797 4.8828 47.48 31.477 42.598 60.234-4.8828 28.762-31.262 47.715-60.059 42.832-28.797-4.8828-47.656-31.531-42.773-60.293 4.2695-25.164 25.18-42.793 49.629-43.535zm606.04 119.88c2.9219-0.085938 5.9453 0.13672 8.9648 0.64453 24.164 4.0977 40.016 26.199 35.918 50.332-4.0938 24.133-26.402 40.016-50.566 35.918-24.164-4.0977-39.781-26.375-35.684-50.508 3.582-21.113 20.902-35.801 41.367-36.387z"/>
</svg>
