<?xml version="1.0" encoding="UTF-8" standalone="no"?>
<svg
   xmlns:dc="http://purl.org/dc/elements/1.1/"
   xmlns:cc="http://creativecommons.org/ns#"
   xmlns:rdf="http://www.w3.org/1999/02/22-rdf-syntax-ns#"
   xmlns:svg="http://www.w3.org/2000/svg"
   xmlns="http://www.w3.org/2000/svg"
   xmlns:xlink="http://www.w3.org/1999/xlink"
   xmlns:sodipodi="http://sodipodi.sourceforge.net/DTD/sodipodi-0.dtd"
   xmlns:inkscape="http://www.inkscape.org/namespaces/inkscape"
   width="125mm"
   height="80mm"
   viewBox="0 0 125 80"
   version="1.1"
   id="svg8"
   inkscape:version="1.0.2-2 (e86c870879, 2021-01-15)"
   sodipodi:docname="2022-elife-insight.svg">
  <defs
     id="defs2">
    <linearGradient
       inkscape:collect="always"
       id="linearGradient2148">
      <stop
         style="stop-color:#808080;stop-opacity:1;"
         offset="0"
         id="stop2144" />
      <stop
         style="stop-color:#808080;stop-opacity:0;"
         offset="1"
         id="stop2146" />
    </linearGradient>
    <linearGradient
       inkscape:collect="always"
       id="linearGradient2080">
      <stop
         style="stop-color:#ff0000;stop-opacity:1;"
         offset="0"
         id="stop2076" />
      <stop
         style="stop-color:#ff0000;stop-opacity:0;"
         offset="1"
         id="stop2078" />
    </linearGradient>
    <marker
       style="overflow:visible"
       id="Arrow2Lstart"
       refX="0"
       refY="0"
       orient="auto"
       inkscape:stockid="Arrow2Lstart"
       inkscape:isstock="true">
      <path
         transform="matrix(1.1,0,0,1.1,1.1,0)"
         d="M 8.7185878,4.0337352 -2.2072895,0.01601326 8.7185884,-4.0017078 c -1.7454984,2.3720609 -1.7354408,5.6174519 -6e-7,8.035443 z"
         style="fill:#000000;fill-opacity:1;fill-rule:evenodd;stroke:#000000;stroke-width:0.625;stroke-linejoin:round;stroke-opacity:1"
         id="path1144" />
    </marker>
    <marker
       style="overflow:visible"
       id="Arrow2Lstart-7"
       refX="0"
       refY="0"
       orient="auto"
       inkscape:stockid="Arrow2Lstart"
       inkscape:isstock="true">
      <path
         transform="matrix(1.1,0,0,1.1,1.1,0)"
         d="M 8.7185878,4.0337352 -2.2072895,0.01601326 8.7185884,-4.0017078 c -1.7454984,2.3720609 -1.7354408,5.6174519 -6e-7,8.035443 z"
         style="fill:#000000;fill-opacity:1;fill-rule:evenodd;stroke:#000000;stroke-width:0.625;stroke-linejoin:round;stroke-opacity:1"
         id="path1144-1" />
    </marker>
    <linearGradient
       inkscape:collect="always"
       xlink:href="#linearGradient2080"
       id="linearGradient2082"
       x1="-171.76126"
       y1="-123.82576"
       x2="-90.861336"
       y2="-123.82576"
       gradientUnits="userSpaceOnUse"
       gradientTransform="matrix(0.99999087,0,0,0.79347711,87.38361,32.220808)" />
    <linearGradient
       inkscape:collect="always"
       xlink:href="#linearGradient2148"
       id="linearGradient2150"
       x1="92.257164"
       y1="100.91464"
       x2="172.5614"
       y2="100.91464"
       gradientUnits="userSpaceOnUse"
       gradientTransform="rotate(-179.90404,87.924371,71.647755)" />
  </defs>
  <sodipodi:namedview
     id="base"
     pagecolor="#ffffff"
     bordercolor="#666666"
     borderopacity="1.0"
     inkscape:pageopacity="0.0"
     inkscape:pageshadow="2"
     inkscape:zoom="1.42"
     inkscape:cx="389.96066"
     inkscape:cy="192.42654"
     inkscape:document-units="mm"
     inkscape:current-layer="layer1"
     inkscape:document-rotation="0"
     showgrid="false"
     inkscape:window-width="1920"
     inkscape:window-height="986"
     inkscape:window-x="-11"
     inkscape:window-y="-11"
     inkscape:window-maximized="1"
     height="125mm">
    <inkscape:grid
       type="xygrid"
       id="grid1541" />
  </sodipodi:namedview>
  <metadata
     id="metadata5">
    <rdf:RDF>
      <cc:Work
         rdf:about="">
        <dc:format>image/svg+xml</dc:format>
        <dc:type
           rdf:resource="http://purl.org/dc/dcmitype/StillImage" />
        <dc:title />
      </cc:Work>
    </rdf:RDF>
  </metadata>
  <g
     inkscape:label="Layer 1"
     inkscape:groupmode="layer"
     id="layer1">
    <g
       id="g900-6-9-4"
       transform="matrix(0.30604053,0.01943941,-0.01943941,0.30604053,0.85960269,-12.996715)"
       inkscape:transform-center-x="-3.1590095"
       inkscape:transform-center-y="7.2071572"
       inkscape:export-xdpi="96"
       inkscape:export-ydpi="96">
      <path
         id="rect10-3-21-1"
         style="opacity:0.5;fill:#00c096;fill-opacity:1;fill-rule:evenodd;stroke:#4d4d4d;stroke-width:0;stroke-linejoin:round;stroke-miterlimit:100"
         d="m 59.864813,92.730613 a 5.3896617,3.7885576 0 0 0 -0.409792,0.01137 H 34.664285 a 5.3896617,3.7809326 0 0 0 -0.353467,-0.0083 5.3896617,3.7809326 0 0 0 -0.350367,0.0083 h -0.07803 v 0.0041 a 5.3896617,3.7809326 0 0 0 -4.961453,3.768762 5.3896617,3.7809326 0 0 0 5.389851,3.780645 5.3896617,3.7809326 0 0 0 0.469738,-0.0145 h 24.444505 a 5.3896617,3.7885576 0 0 0 0.639752,0.0269 5.3896617,3.7885576 0 0 0 5.389853,-3.788404 5.3896617,3.7885576 0 0 0 -4.913913,-3.773929 v -0.0036 h -0.06615 a 5.3896617,3.7885576 0 0 0 -0.409794,-0.01137 z" />
      <path
         style="opacity:0.5;fill:none;stroke:#4d4d4d;stroke-width:0.264583px;stroke-linecap:butt;stroke-linejoin:miter;stroke-opacity:1"
         d="m 28.979703,97.054198 c -1.522135,-0.657887 -1.768795,0.99727 -2.960373,1.295164 -1.059943,0.264986 -1.830529,-1.443783 -2.867862,-0.925115 -0.390027,0.195013 -0.583079,0.697089 -0.925116,0.925115 -0.692707,0.461804 -1.559841,0.329184 -2.312791,0.55507 -0.639314,0.191793 -0.965112,1.268908 -1.572699,1.572698 -0.717383,0.3587 -1.342164,-0.716591 -2.035256,-0.37004 -1.499147,0.74957 -1.028398,0.21765 -2.497815,0.46256 -0.657466,0.10958 -0.767213,0.37004 -1.665209,0.37004"
         id="path887-4-80-6" />
      <path
         style="opacity:0.5;fill:none;stroke:#4d4d4d;stroke-width:0.264583px;stroke-linecap:butt;stroke-linejoin:miter;stroke-opacity:1"
         d="m 28.979703,97.054198 c -0.601641,-0.17217 -1.444749,-2.043409 -2.035257,-2.127766 -1.10209,-0.157443 -2.238261,1.269468 -3.330419,0.832604 -0.856841,-0.342736 -1.129892,-1.420728 -2.22028,-1.20265 -0.494595,0.09892 -1.707805,0.955063 -2.22028,0.64758 -0.465807,-0.279484 -0.786134,-0.948065 -1.202651,-1.295164 -0.232018,-0.193347 -1.147613,0.13303 -1.480187,0 -0.407394,-0.162957 -0.76037,-0.629523 -1.202651,-0.740092 -0.217216,-0.0543 -0.544371,0.09786 -0.740093,0 -0.276339,-0.138169 -0.45331,-0.721596 -0.55507,-0.925116 -0.676714,-1.353429 -2.808773,-0.677902 -3.885489,-0.462561"
         id="path895-8-2-9" />
    </g>
    <g
       id="g900-6-9-4-3"
       transform="matrix(0.30165783,-0.05514753,0.05514753,0.30165783,19.006479,-9.6777198)"
       inkscape:transform-center-x="-0.0074002129"
       inkscape:transform-center-y="-1.5317874"
       inkscape:export-xdpi="96"
       inkscape:export-ydpi="96">
      <path
         id="rect10-3-21-1-3"
         style="opacity:0.5;fill:#00c096;fill-opacity:1;fill-rule:evenodd;stroke:#4d4d4d;stroke-width:0;stroke-linejoin:round;stroke-miterlimit:100"
         d="m 49.945868,105.5664 a 5.3896617,3.7885576 11.971976 0 0 -0.403238,-0.0739 l -24.251517,-5.14243 a 5.3896617,3.7809326 11.971976 0 0 -0.344057,-0.0814 5.3896617,3.7809326 11.971976 0 0 -0.344468,-0.0646 l -0.07633,-0.0162 -8.51e-4,0.004 a 5.3896617,3.7809326 11.971976 0 0 -5.635304,2.65762 5.3896617,3.7809326 11.971976 0 0 4.488386,4.81645 5.3896617,3.7809326 11.971976 0 0 0.462529,0.0833 l 23.912817,5.0706 a 5.3896617,3.7885576 11.971976 0 0 0.620256,0.15902 5.3896617,3.7885576 11.971976 0 0 6.058461,-2.58797 5.3896617,3.7885576 11.971976 0 0 -4.024193,-4.71115 l 7.46e-4,-0.004 -0.06471,-0.0137 a 5.3896617,3.7885576 11.971976 0 0 -0.398522,-0.0961 z" />
      <path
         style="opacity:0.5;fill:none;stroke:#4d4d4d;stroke-width:0.264583px;stroke-linecap:butt;stroke-linejoin:miter;stroke-opacity:1"
         d="m 18.835679,103.38934 c -1.35256,-0.95932 -1.937189,0.60867 -3.164643,0.65292 -1.091855,0.0394 -1.491224,-1.7921 -2.613584,-1.49989 -0.421995,0.10987 -0.714996,0.56098 -1.096893,0.7131 -0.773434,0.30807 -1.594197,-0.002 -2.3776263,0.0632 -0.665193,0.055 -1.207334,1.04111 -1.864721,1.21226 -0.776186,0.20209 -1.164326,-0.97942 -1.914229,-0.78417 -1.622025,0.42229 -1.051178,-4.1e-4 -2.539436,-0.0656 -0.665896,-0.0292 -0.827284,0.20284 -1.705748,0.0166"
         id="path887-4-80-6-7" />
      <path
         style="opacity:0.5;fill:none;stroke:#4d4d4d;stroke-width:0.264583px;stroke-linecap:butt;stroke-linejoin:miter;stroke-opacity:1"
         d="m 18.835679,103.38934 c -0.552841,-0.29322 -0.989454,-2.29865 -1.549619,-2.50366 -1.04546,-0.38263 -2.452907,0.77756 -3.430689,0.12365 -0.76711,-0.51302 -0.81061,-1.624202 -1.922518,-1.63705 -0.504356,-0.0058 -1.868771,0.580034 -2.3063173,0.172935 -0.397701,-0.370029 -0.572374,-1.090514 -0.907832,-1.516463 -0.186865,-0.23727 -1.150246,-0.107917 -1.447992,-0.30704 -0.36473,-0.24392 -0.613247,-0.773556 -1.022972,-0.973464 -0.201228,-0.09818 -0.55283,-0.01719 -0.723996,-0.15352 -0.241667,-0.192486 -0.293767,-0.799932 -0.351097,-1.020134 -0.381248,-1.464364 -2.60706,-1.24579 -3.705026,-1.25848"
         id="path895-8-2-9-8" />
    </g>
    <g
       id="g900-6-9-4-1"
       transform="matrix(0.30165783,-0.05514753,0.05514753,0.30165783,37.761179,-12.208544)"
       inkscape:export-xdpi="96"
       inkscape:export-ydpi="96">
      <path
         id="rect10-3-21-1-8"
         style="opacity:0.5;fill:#00c096;fill-opacity:1;fill-rule:evenodd;stroke:#4d4d4d;stroke-width:0;stroke-linejoin:round;stroke-miterlimit:100"
         d="m 59.864813,92.730613 a 5.3896617,3.7885576 0 0 0 -0.409792,0.01137 H 34.664285 a 5.3896617,3.7809326 0 0 0 -0.353467,-0.0083 5.3896617,3.7809326 0 0 0 -0.350367,0.0083 h -0.07803 v 0.0041 a 5.3896617,3.7809326 0 0 0 -4.961453,3.768762 5.3896617,3.7809326 0 0 0 5.389851,3.780645 5.3896617,3.7809326 0 0 0 0.469738,-0.0145 h 24.444505 a 5.3896617,3.7885576 0 0 0 0.639752,0.0269 5.3896617,3.7885576 0 0 0 5.389853,-3.788404 5.3896617,3.7885576 0 0 0 -4.913913,-3.773929 v -0.0036 h -0.06615 a 5.3896617,3.7885576 0 0 0 -0.409794,-0.01137 z" />
      <path
         style="opacity:0.5;fill:none;stroke:#4d4d4d;stroke-width:0.264583px;stroke-linecap:butt;stroke-linejoin:miter;stroke-opacity:1"
         d="m 28.979703,97.054198 c -1.522135,-0.657887 -1.768795,0.99727 -2.960373,1.295164 -1.059943,0.264986 -1.830529,-1.443783 -2.867862,-0.925115 -0.390027,0.195013 -0.583079,0.697089 -0.925116,0.925115 -0.692707,0.461804 -1.559841,0.329184 -2.312791,0.55507 -0.639314,0.191793 -0.965112,1.268908 -1.572699,1.572698 -0.717383,0.3587 -1.342164,-0.716591 -2.035256,-0.37004 -1.499147,0.74957 -1.028398,0.21765 -2.497815,0.46256 -0.657466,0.10958 -0.767213,0.37004 -1.665209,0.37004"
         id="path887-4-80-6-4" />
      <path
         style="opacity:0.5;fill:none;stroke:#4d4d4d;stroke-width:0.264583px;stroke-linecap:butt;stroke-linejoin:miter;stroke-opacity:1"
         d="m 28.979703,97.054198 c -0.601641,-0.17217 -1.444749,-2.043409 -2.035257,-2.127766 -1.10209,-0.157443 -2.238261,1.269468 -3.330419,0.832604 -0.856841,-0.342736 -1.129892,-1.420728 -2.22028,-1.20265 -0.494595,0.09892 -1.707805,0.955063 -2.22028,0.64758 -0.465807,-0.279484 -0.786134,-0.948065 -1.202651,-1.295164 -0.232018,-0.193347 -1.147613,0.13303 -1.480187,0 -0.407394,-0.162957 -0.76037,-0.629523 -1.202651,-0.740092 -0.217216,-0.0543 -0.544371,0.09786 -0.740093,0 -0.276339,-0.138169 -0.45331,-0.721596 -0.55507,-0.925116 -0.676714,-1.353429 -2.808773,-0.677902 -3.885489,-0.462561"
         id="path895-8-2-9-7" />
    </g>
    <g
       id="g900-6-9-4-37"
       transform="matrix(0.30653446,0.0086789,-0.0086789,0.30653446,42.451289,-5.792477)"
       inkscape:export-xdpi="96"
       inkscape:export-ydpi="96">
      <path
         id="rect10-3-21-1-0"
         style="opacity:0.5;fill:#00c096;fill-opacity:1;fill-rule:evenodd;stroke:#4d4d4d;stroke-width:0;stroke-linejoin:round;stroke-miterlimit:100"
         d="m 59.864813,92.730613 a 5.3896617,3.7885576 0 0 0 -0.409792,0.01137 H 34.664285 a 5.3896617,3.7809326 0 0 0 -0.353467,-0.0083 5.3896617,3.7809326 0 0 0 -0.350367,0.0083 h -0.07803 v 0.0041 a 5.3896617,3.7809326 0 0 0 -4.961453,3.768762 5.3896617,3.7809326 0 0 0 5.389851,3.780645 5.3896617,3.7809326 0 0 0 0.469738,-0.0145 h 24.444505 a 5.3896617,3.7885576 0 0 0 0.639752,0.0269 5.3896617,3.7885576 0 0 0 5.389853,-3.788404 5.3896617,3.7885576 0 0 0 -4.913913,-3.773929 v -0.0036 h -0.06615 a 5.3896617,3.7885576 0 0 0 -0.409794,-0.01137 z" />
      <path
         style="opacity:0.5;fill:none;stroke:#4d4d4d;stroke-width:0.264583px;stroke-linecap:butt;stroke-linejoin:miter;stroke-opacity:1"
         d="m 28.979703,97.054198 c -1.522135,-0.657887 -1.768795,0.99727 -2.960373,1.295164 -1.059943,0.264986 -1.830529,-1.443783 -2.867862,-0.925115 -0.390027,0.195013 -0.583079,0.697089 -0.925116,0.925115 -0.692707,0.461804 -1.559841,0.329184 -2.312791,0.55507 -0.639314,0.191793 -0.965112,1.268908 -1.572699,1.572698 -0.717383,0.3587 -1.342164,-0.716591 -2.035256,-0.37004 -1.499147,0.74957 -1.028398,0.21765 -2.497815,0.46256 -0.657466,0.10958 -0.767213,0.37004 -1.665209,0.37004"
         id="path887-4-80-6-1" />
      <path
         style="opacity:0.5;fill:none;stroke:#4d4d4d;stroke-width:0.264583px;stroke-linecap:butt;stroke-linejoin:miter;stroke-opacity:1"
         d="m 28.979703,97.054198 c -0.601641,-0.17217 -1.444749,-2.043409 -2.035257,-2.127766 -1.10209,-0.157443 -2.238261,1.269468 -3.330419,0.832604 -0.856841,-0.342736 -1.129892,-1.420728 -2.22028,-1.20265 -0.494595,0.09892 -1.707805,0.955063 -2.22028,0.64758 -0.465807,-0.279484 -0.786134,-0.948065 -1.202651,-1.295164 -0.232018,-0.193347 -1.147613,0.13303 -1.480187,0 -0.407394,-0.162957 -0.76037,-0.629523 -1.202651,-0.740092 -0.217216,-0.0543 -0.544371,0.09786 -0.740093,0 -0.276339,-0.138169 -0.45331,-0.721596 -0.55507,-0.925116 -0.676714,-1.353429 -2.808773,-0.677902 -3.885489,-0.462561"
         id="path895-8-2-9-3" />
    </g>
    <g
       id="g900-6-9-4-7"
       transform="matrix(0.30605305,0.01924132,-0.01924132,0.30605305,31.282369,0.73834192)"
       inkscape:export-xdpi="96"
       inkscape:export-ydpi="96">
      <path
         id="rect10-3-21-1-2"
         style="opacity:0.5;fill:#00c096;fill-opacity:1;fill-rule:evenodd;stroke:#4d4d4d;stroke-width:0;stroke-linejoin:round;stroke-miterlimit:100"
         d="m 59.864813,92.730613 a 5.3896617,3.7885576 0 0 0 -0.409792,0.01137 H 34.664285 a 5.3896617,3.7809326 0 0 0 -0.353467,-0.0083 5.3896617,3.7809326 0 0 0 -0.350367,0.0083 h -0.07803 v 0.0041 a 5.3896617,3.7809326 0 0 0 -4.961453,3.768762 5.3896617,3.7809326 0 0 0 5.389851,3.780645 5.3896617,3.7809326 0 0 0 0.469738,-0.0145 h 24.444505 a 5.3896617,3.7885576 0 0 0 0.639752,0.0269 5.3896617,3.7885576 0 0 0 5.389853,-3.788404 5.3896617,3.7885576 0 0 0 -4.913913,-3.773929 v -0.0036 h -0.06615 a 5.3896617,3.7885576 0 0 0 -0.409794,-0.01137 z" />
      <path
         style="opacity:0.5;fill:none;stroke:#4d4d4d;stroke-width:0.264583px;stroke-linecap:butt;stroke-linejoin:miter;stroke-opacity:1"
         d="m 28.979703,97.054198 c -1.522135,-0.657887 -1.768795,0.99727 -2.960373,1.295164 -1.059943,0.264986 -1.830529,-1.443783 -2.867862,-0.925115 -0.390027,0.195013 -0.583079,0.697089 -0.925116,0.925115 -0.692707,0.461804 -1.559841,0.329184 -2.312791,0.55507 -0.639314,0.191793 -0.965112,1.268908 -1.572699,1.572698 -0.717383,0.3587 -1.342164,-0.716591 -2.035256,-0.37004 -1.499147,0.74957 -1.028398,0.21765 -2.497815,0.46256 -0.657466,0.10958 -0.767213,0.37004 -1.665209,0.37004"
         id="path887-4-80-6-2" />
      <path
         style="opacity:0.5;fill:none;stroke:#4d4d4d;stroke-width:0.264583px;stroke-linecap:butt;stroke-linejoin:miter;stroke-opacity:1"
         d="m 28.979703,97.054198 c -0.601641,-0.17217 -1.444749,-2.043409 -2.035257,-2.127766 -1.10209,-0.157443 -2.238261,1.269468 -3.330419,0.832604 -0.856841,-0.342736 -1.129892,-1.420728 -2.22028,-1.20265 -0.494595,0.09892 -1.707805,0.955063 -2.22028,0.64758 -0.465807,-0.279484 -0.786134,-0.948065 -1.202651,-1.295164 -0.232018,-0.193347 -1.147613,0.13303 -1.480187,0 -0.407394,-0.162957 -0.76037,-0.629523 -1.202651,-0.740092 -0.217216,-0.0543 -0.544371,0.09786 -0.740093,0 -0.276339,-0.138169 -0.45331,-0.721596 -0.55507,-0.925116 -0.676714,-1.353429 -2.808773,-0.677902 -3.885489,-0.462561"
         id="path895-8-2-9-0" />
    </g>
    <g
       id="g900-6-9-4-39"
       transform="matrix(0.28760849,0.10639574,-0.10639574,0.28760849,69.222219,-22.565369)"
       inkscape:export-xdpi="96"
       inkscape:export-ydpi="96">
      <path
         id="rect10-3-21-1-6"
         style="opacity:0.5;fill:#00c096;fill-opacity:1;fill-rule:evenodd;stroke:#4d4d4d;stroke-width:0;stroke-linejoin:round;stroke-miterlimit:100"
         d="m 59.864813,92.730613 a 5.3896617,3.7885576 0 0 0 -0.409792,0.01137 H 34.664285 a 5.3896617,3.7809326 0 0 0 -0.353467,-0.0083 5.3896617,3.7809326 0 0 0 -0.350367,0.0083 h -0.07803 v 0.0041 a 5.3896617,3.7809326 0 0 0 -4.961453,3.768762 5.3896617,3.7809326 0 0 0 5.389851,3.780645 5.3896617,3.7809326 0 0 0 0.469738,-0.0145 h 24.444505 a 5.3896617,3.7885576 0 0 0 0.639752,0.0269 5.3896617,3.7885576 0 0 0 5.389853,-3.788404 5.3896617,3.7885576 0 0 0 -4.913913,-3.773929 v -0.0036 h -0.06615 a 5.3896617,3.7885576 0 0 0 -0.409794,-0.01137 z" />
      <path
         style="opacity:0.5;fill:none;stroke:#4d4d4d;stroke-width:0.264583px;stroke-linecap:butt;stroke-linejoin:miter;stroke-opacity:1"
         d="m 28.979703,97.054198 c -1.522135,-0.657887 -1.768795,0.99727 -2.960373,1.295164 -1.059943,0.264986 -1.830529,-1.443783 -2.867862,-0.925115 -0.390027,0.195013 -0.583079,0.697089 -0.925116,0.925115 -0.692707,0.461804 -1.559841,0.329184 -2.312791,0.55507 -0.639314,0.191793 -0.965112,1.268908 -1.572699,1.572698 -0.717383,0.3587 -1.342164,-0.716591 -2.035256,-0.37004 -1.499147,0.74957 -1.028398,0.21765 -2.497815,0.46256 -0.657466,0.10958 -0.767213,0.37004 -1.665209,0.37004"
         id="path887-4-80-6-3" />
      <path
         style="opacity:0.5;fill:none;stroke:#4d4d4d;stroke-width:0.264583px;stroke-linecap:butt;stroke-linejoin:miter;stroke-opacity:1"
         d="m 28.979703,97.054198 c -0.601641,-0.17217 -1.444749,-2.043409 -2.035257,-2.127766 -1.10209,-0.157443 -2.238261,1.269468 -3.330419,0.832604 -0.856841,-0.342736 -1.129892,-1.420728 -2.22028,-1.20265 -0.494595,0.09892 -1.707805,0.955063 -2.22028,0.64758 -0.465807,-0.279484 -0.786134,-0.948065 -1.202651,-1.295164 -0.232018,-0.193347 -1.147613,0.13303 -1.480187,0 -0.407394,-0.162957 -0.76037,-0.629523 -1.202651,-0.740092 -0.217216,-0.0543 -0.544371,0.09786 -0.740093,0 -0.276339,-0.138169 -0.45331,-0.721596 -0.55507,-0.925116 -0.676714,-1.353429 -2.808773,-0.677902 -3.885489,-0.462561"
         id="path895-8-2-9-4" />
    </g>
    <g
       id="g900-6-9-4-32"
       transform="matrix(0.30165783,-0.05514753,0.05514753,0.30165783,-1.8257713,1.1352369)"
       inkscape:export-xdpi="96"
       inkscape:export-ydpi="96">
      <path
         id="rect10-3-21-1-63"
         style="opacity:0.5;fill:#00c096;fill-opacity:1;fill-rule:evenodd;stroke:#4d4d4d;stroke-width:0;stroke-linejoin:round;stroke-miterlimit:100"
         d="m 59.864813,92.730613 a 5.3896617,3.7885576 0 0 0 -0.409792,0.01137 H 34.664285 a 5.3896617,3.7809326 0 0 0 -0.353467,-0.0083 5.3896617,3.7809326 0 0 0 -0.350367,0.0083 h -0.07803 v 0.0041 a 5.3896617,3.7809326 0 0 0 -4.961453,3.768762 5.3896617,3.7809326 0 0 0 5.389851,3.780645 5.3896617,3.7809326 0 0 0 0.469738,-0.0145 h 24.444505 a 5.3896617,3.7885576 0 0 0 0.639752,0.0269 5.3896617,3.7885576 0 0 0 5.389853,-3.788404 5.3896617,3.7885576 0 0 0 -4.913913,-3.773929 v -0.0036 h -0.06615 a 5.3896617,3.7885576 0 0 0 -0.409794,-0.01137 z" />
      <path
         style="opacity:0.5;fill:none;stroke:#4d4d4d;stroke-width:0.264583px;stroke-linecap:butt;stroke-linejoin:miter;stroke-opacity:1"
         d="m 28.979703,97.054198 c -1.522135,-0.657887 -1.768795,0.99727 -2.960373,1.295164 -1.059943,0.264986 -1.830529,-1.443783 -2.867862,-0.925115 -0.390027,0.195013 -0.583079,0.697089 -0.925116,0.925115 -0.692707,0.461804 -1.559841,0.329184 -2.312791,0.55507 -0.639314,0.191793 -0.965112,1.268908 -1.572699,1.572698 -0.717383,0.3587 -1.342164,-0.716591 -2.035256,-0.37004 -1.499147,0.74957 -1.028398,0.21765 -2.497815,0.46256 -0.657466,0.10958 -0.767213,0.37004 -1.665209,0.37004"
         id="path887-4-80-6-0" />
      <path
         style="opacity:0.5;fill:none;stroke:#4d4d4d;stroke-width:0.264583px;stroke-linecap:butt;stroke-linejoin:miter;stroke-opacity:1"
         d="m 28.979703,97.054198 c -0.601641,-0.17217 -1.444749,-2.043409 -2.035257,-2.127766 -1.10209,-0.157443 -2.238261,1.269468 -3.330419,0.832604 -0.856841,-0.342736 -1.129892,-1.420728 -2.22028,-1.20265 -0.494595,0.09892 -1.707805,0.955063 -2.22028,0.64758 -0.465807,-0.279484 -0.786134,-0.948065 -1.202651,-1.295164 -0.232018,-0.193347 -1.147613,0.13303 -1.480187,0 -0.407394,-0.162957 -0.76037,-0.629523 -1.202651,-0.740092 -0.217216,-0.0543 -0.544371,0.09786 -0.740093,0 -0.276339,-0.138169 -0.45331,-0.721596 -0.55507,-0.925116 -0.676714,-1.353429 -2.808773,-0.677902 -3.885489,-0.462561"
         id="path895-8-2-9-6" />
    </g>
    <g
       id="g900-6-9-4-36"
       transform="matrix(0.30165783,-0.05514753,0.05514753,0.30165783,19.196509,-20.009691)"
       inkscape:export-xdpi="96"
       inkscape:export-ydpi="96">
      <path
         id="rect10-3-21-1-9"
         style="opacity:0.5;fill:#00c096;fill-opacity:1;fill-rule:evenodd;stroke:#4d4d4d;stroke-width:0;stroke-linejoin:round;stroke-miterlimit:100"
         d="m 59.864813,92.730613 a 5.3896617,3.7885576 0 0 0 -0.409792,0.01137 H 34.664285 a 5.3896617,3.7809326 0 0 0 -0.353467,-0.0083 5.3896617,3.7809326 0 0 0 -0.350367,0.0083 h -0.07803 v 0.0041 a 5.3896617,3.7809326 0 0 0 -4.961453,3.768762 5.3896617,3.7809326 0 0 0 5.389851,3.780645 5.3896617,3.7809326 0 0 0 0.469738,-0.0145 h 24.444505 a 5.3896617,3.7885576 0 0 0 0.639752,0.0269 5.3896617,3.7885576 0 0 0 5.389853,-3.788404 5.3896617,3.7885576 0 0 0 -4.913913,-3.773929 v -0.0036 h -0.06615 a 5.3896617,3.7885576 0 0 0 -0.409794,-0.01137 z" />
      <path
         style="opacity:0.5;fill:none;stroke:#4d4d4d;stroke-width:0.264583px;stroke-linecap:butt;stroke-linejoin:miter;stroke-opacity:1"
         d="m 28.979703,97.054198 c -1.522135,-0.657887 -1.768795,0.99727 -2.960373,1.295164 -1.059943,0.264986 -1.830529,-1.443783 -2.867862,-0.925115 -0.390027,0.195013 -0.583079,0.697089 -0.925116,0.925115 -0.692707,0.461804 -1.559841,0.329184 -2.312791,0.55507 -0.639314,0.191793 -0.965112,1.268908 -1.572699,1.572698 -0.717383,0.3587 -1.342164,-0.716591 -2.035256,-0.37004 -1.499147,0.74957 -1.028398,0.21765 -2.497815,0.46256 -0.657466,0.10958 -0.767213,0.37004 -1.665209,0.37004"
         id="path887-4-80-6-9" />
      <path
         style="opacity:0.5;fill:none;stroke:#4d4d4d;stroke-width:0.264583px;stroke-linecap:butt;stroke-linejoin:miter;stroke-opacity:1"
         d="m 28.979703,97.054198 c -0.601641,-0.17217 -1.444749,-2.043409 -2.035257,-2.127766 -1.10209,-0.157443 -2.238261,1.269468 -3.330419,0.832604 -0.856841,-0.342736 -1.129892,-1.420728 -2.22028,-1.20265 -0.494595,0.09892 -1.707805,0.955063 -2.22028,0.64758 -0.465807,-0.279484 -0.786134,-0.948065 -1.202651,-1.295164 -0.232018,-0.193347 -1.147613,0.13303 -1.480187,0 -0.407394,-0.162957 -0.76037,-0.629523 -1.202651,-0.740092 -0.217216,-0.0543 -0.544371,0.09786 -0.740093,0 -0.276339,-0.138169 -0.45331,-0.721596 -0.55507,-0.925116 -0.676714,-1.353429 -2.808773,-0.677902 -3.885489,-0.462561"
         id="path895-8-2-9-1" />
    </g>
    <g
       id="g900-6-9-4-31"
       transform="matrix(0.30165783,0.06157748,0.05514753,0.32299689,52.190419,-4.938955)"
       inkscape:export-xdpi="96"
       inkscape:export-ydpi="96">
      <path
         id="rect10-3-21-1-31"
         style="opacity:0.5;fill:#00c096;fill-opacity:1;fill-rule:evenodd;stroke:#4d4d4d;stroke-width:0;stroke-linejoin:round;stroke-miterlimit:100"
         d="m 59.864813,92.730613 a 5.3896617,3.7885576 0 0 0 -0.409792,0.01137 H 34.664285 a 5.3896617,3.7809326 0 0 0 -0.353467,-0.0083 5.3896617,3.7809326 0 0 0 -0.350367,0.0083 h -0.07803 v 0.0041 a 5.3896617,3.7809326 0 0 0 -4.961453,3.768762 5.3896617,3.7809326 0 0 0 5.389851,3.780645 5.3896617,3.7809326 0 0 0 0.469738,-0.0145 h 24.444505 a 5.3896617,3.7885576 0 0 0 0.639752,0.0269 5.3896617,3.7885576 0 0 0 5.389853,-3.788404 5.3896617,3.7885576 0 0 0 -4.913913,-3.773929 v -0.0036 h -0.06615 a 5.3896617,3.7885576 0 0 0 -0.409794,-0.01137 z" />
      <path
         style="opacity:0.5;fill:none;stroke:#4d4d4d;stroke-width:0.264583px;stroke-linecap:butt;stroke-linejoin:miter;stroke-opacity:1"
         d="m 28.979703,97.054198 c -1.522135,-0.657887 -1.768795,0.99727 -2.960373,1.295164 -1.059943,0.264986 -1.830529,-1.443783 -2.867862,-0.925115 -0.390027,0.195013 -0.583079,0.697089 -0.925116,0.925115 -0.692707,0.461804 -1.559841,0.329184 -2.312791,0.55507 -0.639314,0.191793 -0.965112,1.268908 -1.572699,1.572698 -0.717383,0.3587 -1.342164,-0.716591 -2.035256,-0.37004 -1.499147,0.74957 -1.028398,0.21765 -2.497815,0.46256 -0.657466,0.10958 -0.767213,0.37004 -1.665209,0.37004"
         id="path887-4-80-6-11" />
      <path
         style="opacity:0.5;fill:none;stroke:#4d4d4d;stroke-width:0.264583px;stroke-linecap:butt;stroke-linejoin:miter;stroke-opacity:1"
         d="m 28.979703,97.054198 c -0.601641,-0.17217 -1.444749,-2.043409 -2.035257,-2.127766 -1.10209,-0.157443 -2.238261,1.269468 -3.330419,0.832604 -0.856841,-0.342736 -1.129892,-1.420728 -2.22028,-1.20265 -0.494595,0.09892 -1.707805,0.955063 -2.22028,0.64758 -0.465807,-0.279484 -0.786134,-0.948065 -1.202651,-1.295164 -0.232018,-0.193347 -1.147613,0.13303 -1.480187,0 -0.407394,-0.162957 -0.76037,-0.629523 -1.202651,-0.740092 -0.217216,-0.0543 -0.544371,0.09786 -0.740093,0 -0.276339,-0.138169 -0.45331,-0.721596 -0.55507,-0.925116 -0.676714,-1.353429 -2.808773,-0.677902 -3.885489,-0.462561"
         id="path895-8-2-9-13" />
    </g>
    <g
       id="g900-6-9-4-78"
       transform="matrix(0.30165783,-0.05514753,0.05514753,0.30165783,56.159169,-7.792257)"
       inkscape:export-xdpi="96"
       inkscape:export-ydpi="96">
      <path
         id="rect10-3-21-1-4"
         style="opacity:0.5;fill:#00c096;fill-opacity:1;fill-rule:evenodd;stroke:#4d4d4d;stroke-width:0;stroke-linejoin:round;stroke-miterlimit:100"
         d="m 59.864813,92.730613 a 5.3896617,3.7885576 0 0 0 -0.409792,0.01137 H 34.664285 a 5.3896617,3.7809326 0 0 0 -0.353467,-0.0083 5.3896617,3.7809326 0 0 0 -0.350367,0.0083 h -0.07803 v 0.0041 a 5.3896617,3.7809326 0 0 0 -4.961453,3.768762 5.3896617,3.7809326 0 0 0 5.389851,3.780645 5.3896617,3.7809326 0 0 0 0.469738,-0.0145 h 24.444505 a 5.3896617,3.7885576 0 0 0 0.639752,0.0269 5.3896617,3.7885576 0 0 0 5.389853,-3.788404 5.3896617,3.7885576 0 0 0 -4.913913,-3.773929 v -0.0036 h -0.06615 a 5.3896617,3.7885576 0 0 0 -0.409794,-0.01137 z" />
      <path
         style="opacity:0.5;fill:none;stroke:#4d4d4d;stroke-width:0.264583px;stroke-linecap:butt;stroke-linejoin:miter;stroke-opacity:1"
         d="m 28.979703,97.054198 c -1.522135,-0.657887 -1.768795,0.99727 -2.960373,1.295164 -1.059943,0.264986 -1.830529,-1.443783 -2.867862,-0.925115 -0.390027,0.195013 -0.583079,0.697089 -0.925116,0.925115 -0.692707,0.461804 -1.559841,0.329184 -2.312791,0.55507 -0.639314,0.191793 -0.965112,1.268908 -1.572699,1.572698 -0.717383,0.3587 -1.342164,-0.716591 -2.035256,-0.37004 -1.499147,0.74957 -1.028398,0.21765 -2.497815,0.46256 -0.657466,0.10958 -0.767213,0.37004 -1.665209,0.37004"
         id="path887-4-80-6-42" />
      <path
         style="opacity:0.5;fill:none;stroke:#4d4d4d;stroke-width:0.264583px;stroke-linecap:butt;stroke-linejoin:miter;stroke-opacity:1"
         d="m 28.979703,97.054198 c -0.601641,-0.17217 -1.444749,-2.043409 -2.035257,-2.127766 -1.10209,-0.157443 -2.238261,1.269468 -3.330419,0.832604 -0.856841,-0.342736 -1.129892,-1.420728 -2.22028,-1.20265 -0.494595,0.09892 -1.707805,0.955063 -2.22028,0.64758 -0.465807,-0.279484 -0.786134,-0.948065 -1.202651,-1.295164 -0.232018,-0.193347 -1.147613,0.13303 -1.480187,0 -0.407394,-0.162957 -0.76037,-0.629523 -1.202651,-0.740092 -0.217216,-0.0543 -0.544371,0.09786 -0.740093,0 -0.276339,-0.138169 -0.45331,-0.721596 -0.55507,-0.925116 -0.676714,-1.353429 -2.808773,-0.677902 -3.885489,-0.462561"
         id="path895-8-2-9-32" />
    </g>
    <path
       id="rect10-3-21-1-63-4"
       style="opacity:0.5;fill:#00c096;fill-opacity:1;fill-rule:evenodd;stroke:#4d4d4d;stroke-width:0;stroke-linejoin:round;stroke-miterlimit:100"
       d="m 17.337949,67.418495 a 1.6527791,1.1617888 28.376785 0 0 -0.1122,-0.0567 l -6.688784,-3.61311 a 1.6527791,1.1594506 28.376785 0 0 -0.0942,-0.0537 1.6527791,1.1594506 28.376785 0 0 -0.0957,-0.0488 l -0.0208,-0.0116 -4.5e-4,9.3e-4 a 1.6527791,1.1594506 28.376785 0 0 -1.8879203,0.29373 1.6527791,1.1594506 28.376785 0 0 0.90322,1.80561 1.6527791,1.1594506 28.376785 0 0 0.12887,0.0645 l 6.5953643,3.56264 a 1.6527791,1.1617888 28.376785 0 0 0.16872,0.10047 1.6527791,1.1617888 28.376785 0 0 2.00637,-0.23661 1.6527791,1.1617888 28.376785 0 0 -0.77579,-1.73442 l 4.7e-4,-9.1e-4 -0.0181,-0.009 a 1.6527791,1.1617888 28.376785 0 0 -0.10893,-0.0628 z"
       inkscape:export-xdpi="96"
       inkscape:export-ydpi="96" />
    <path
       id="rect10-3-21-1-63-4-0"
       style="opacity:0.5;fill:#00c096;fill-opacity:1;fill-rule:evenodd;stroke:#4d4d4d;stroke-width:0;stroke-linejoin:round;stroke-miterlimit:100"
       d="m 79.291599,66.327355 a 1.8176696,1.0563968 32.073622 0 0 -0.12299,-0.0303 l -7.47832,-2.05322 a 1.8169001,1.0547172 31.991171 0 0 -0.10709,-0.032 1.8169001,1.0547172 31.991171 0 0 -0.10523,-0.0263 l -0.0235,-0.007 2.3e-4,0.001 a 1.8169001,1.0547172 31.991171 0 0 -1.28883,0.821 1.8169001,1.0547172 31.991171 0 0 1.83439,1.68223 1.8169001,1.0547172 31.991171 0 0 0.1409,0.0341 l 7.37387,2.02455 a 1.8176696,1.0563968 32.073622 0 0 0.19447,0.0617 1.8176696,1.0563968 32.073622 0 0 1.41697,-0.79196 1.8176696,1.0563968 32.073622 0 0 -1.69044,-1.64061 l -2e-4,-0.001 -0.02,-0.005 a 1.8176696,1.0563968 32.073622 0 0 -0.12425,-0.0376 z"
       inkscape:export-xdpi="96"
       inkscape:export-ydpi="96" />
    <path
       id="rect10-3-21-1-63-4-1"
       style="opacity:0.5;fill:#00c096;fill-opacity:1;fill-rule:evenodd;stroke:#4d4d4d;stroke-width:0;stroke-linejoin:round;stroke-miterlimit:100"
       d="m 43.796279,67.418495 a 1.1617888,1.6527791 79.639886 0 0 -0.12299,0.026 l -7.47832,1.36715 a 1.1594506,1.6527791 79.639886 0 0 -0.10709,0.017 1.1594506,1.6527791 79.639886 0 0 -0.10523,0.0218 l -0.0235,0.004 2.3e-4,0.001 a 1.1594506,1.6527791 79.639886 0 0 -1.28883,1.41048 1.1594506,1.6527791 79.639886 0 0 1.83439,0.84323 1.1594506,1.6527791 79.639886 0 0 0.1409,-0.0303 l 7.37387,-1.34806 a 1.1617888,1.6527791 79.639886 0 0 0.19447,-0.0272 1.1617888,1.6527791 79.639886 0 0 1.41697,-1.44004 1.1617888,1.6527791 79.639886 0 0 -1.69044,-0.86745 l -2e-4,-0.001 -0.02,0.004 a 1.1617888,1.6527791 79.639886 0 0 -0.12425,0.0192 z"
       inkscape:export-xdpi="96"
       inkscape:export-ydpi="96" />
    <path
       id="rect10-3-21-1-63-4-5"
       style="opacity:0.5;fill:#00c096;fill-opacity:1;fill-rule:evenodd;stroke:#4d4d4d;stroke-width:0;stroke-linejoin:round;stroke-miterlimit:100"
       d="m 34.535869,64.772665 a 1.6527791,1.1617888 8.7727724 0 0 -0.12472,-0.0157 l -7.51332,-1.15947 a 1.6527791,1.1594506 8.7727724 0 0 -0.10675,-0.019 1.6527791,1.1594506 8.7727724 0 0 -0.10656,-0.0139 l -0.0235,-0.004 -1.1e-4,10e-4 a 1.6527791,1.1594506 8.7727724 0 0 -1.67993,0.91014 1.6527791,1.1594506 8.7727724 0 0 1.45668,1.39789 1.6527791,1.1594506 8.7727724 0 0 0.14305,0.0176 l 7.40838,1.14327 a 1.6527791,1.1617888 8.7727724 0 0 0.19265,0.038 1.6527791,1.1617888 8.7727724 0 0 1.81068,-0.89607 1.6527791,1.1617888 8.7727724 0 0 -1.31274,-1.37359 l 1.3e-4,-10e-4 -0.0202,-0.003 a 1.6527791,1.1617888 8.7727724 0 0 -0.12368,-0.0226 z"
       inkscape:export-xdpi="96"
       inkscape:export-ydpi="96" />
    <path
       id="rect10-3-21-1-63-4-6"
       style="opacity:0.5;fill:#00c096;fill-opacity:1;fill-rule:evenodd;stroke:#4d4d4d;stroke-width:0;stroke-linejoin:round;stroke-miterlimit:100"
       d="m 30.343689,67.752025 a 1.1617888,1.6527791 79.639886 0 0 -0.12299,0.026 l -7.47832,1.36715 a 1.1594506,1.6527791 79.639886 0 0 -0.10709,0.017 1.1594506,1.6527791 79.639886 0 0 -0.10523,0.0218 l -0.0235,0.004 2.3e-4,0.001 a 1.1594506,1.6527791 79.639886 0 0 -1.28883,1.41048 1.1594506,1.6527791 79.639886 0 0 1.83439,0.84323 1.1594506,1.6527791 79.639886 0 0 0.1409,-0.0303 l 7.37387,-1.34806 a 1.1617888,1.6527791 79.639886 0 0 0.19447,-0.0272 1.1617888,1.6527791 79.639886 0 0 1.41697,-1.44004 1.1617888,1.6527791 79.639886 0 0 -1.69044,-0.86745 l -2e-4,-0.001 -0.02,0.004 a 1.1617888,1.6527791 79.639886 0 0 -0.12425,0.0192 z"
       inkscape:export-xdpi="96"
       inkscape:export-ydpi="96" />
    <path
       id="rect10-3-21-1-63-4-2"
       style="opacity:0.5;fill:#00c096;fill-opacity:1;fill-rule:evenodd;stroke:#4d4d4d;stroke-width:0;stroke-linejoin:round;stroke-miterlimit:100"
       d="m 49.087949,60.803915 a 1.1617888,1.6527791 79.639886 0 0 -0.12299,0.026 l -7.47832,1.36715 a 1.1594506,1.6527791 79.639886 0 0 -0.10709,0.017 1.1594506,1.6527791 79.639886 0 0 -0.10523,0.0218 l -0.0235,0.004 2.3e-4,10e-4 a 1.1594506,1.6527791 79.639886 0 0 -1.28883,1.41048 1.1594506,1.6527791 79.639886 0 0 1.83439,0.84323 1.1594506,1.6527791 79.639886 0 0 0.1409,-0.0303 l 7.37387,-1.34806 a 1.1617888,1.6527791 79.639886 0 0 0.19447,-0.0272 1.1617888,1.6527791 79.639886 0 0 1.41697,-1.44004 1.1617888,1.6527791 79.639886 0 0 -1.69044,-0.86745 l -2e-4,-0.001 -0.02,0.004 a 1.1617888,1.6527791 79.639886 0 0 -0.12425,0.0192 z"
       inkscape:export-xdpi="96"
       inkscape:export-ydpi="96" />
    <path
       id="rect10-3-21-1-63-4-01"
       style="opacity:0.5;fill:#00c096;fill-opacity:1;fill-rule:evenodd;stroke:#4d4d4d;stroke-width:0;stroke-linejoin:round;stroke-miterlimit:100"
       d="m 55.702529,68.741415 a 1.6527791,1.1617888 22.221178 0 0 -0.11764,-0.0443 l -7.03764,-2.87504 a 1.6527791,1.1594506 22.221178 0 0 -0.0994,-0.0433 1.6527791,1.1594506 22.221178 0 0 -0.10041,-0.0383 l -0.022,-0.009 -3.5e-4,9.6e-4 a 1.6527791,1.1594506 22.221178 0 0 -1.84554,0.49448 1.6527791,1.1594506 22.221178 0 0 1.09164,1.69834 1.6527791,1.1594506 22.221178 0 0 0.13504,0.0503 l 6.93935,2.83488 a 1.6527791,1.1617888 22.221178 0 0 0.17852,0.0818 1.6527791,1.1617888 22.221178 0 0 1.96943,-0.45038 1.6527791,1.1617888 22.221178 0 0 -0.95729,-1.64124 l 3.7e-4,-9.5e-4 -0.019,-0.007 a 1.6527791,1.1617888 22.221178 0 0 -0.11504,-0.0507 z"
       inkscape:export-xdpi="96"
       inkscape:export-ydpi="96" />
    <path
       id="rect10-3-21-1-63-4-64"
       style="opacity:0.5;fill:#00c096;fill-opacity:1;fill-rule:evenodd;stroke:#4d4d4d;stroke-width:0;stroke-linejoin:round;stroke-miterlimit:100"
       d="m 62.317119,62.126825 a 1.1617888,1.6527791 79.639886 0 0 -0.12299,0.026 l -7.47832,1.36715 a 1.1594506,1.6527791 79.639886 0 0 -0.10709,0.017 1.1594506,1.6527791 79.639886 0 0 -0.10523,0.0218 l -0.0235,0.004 2.3e-4,10e-4 a 1.1594506,1.6527791 79.639886 0 0 -1.28883,1.41048 1.1594506,1.6527791 79.639886 0 0 1.83439,0.84323 1.1594506,1.6527791 79.639886 0 0 0.1409,-0.0303 l 7.37387,-1.34806 a 1.1617888,1.6527791 79.639886 0 0 0.19447,-0.0272 1.1617888,1.6527791 79.639886 0 0 1.41697,-1.44004 1.1617888,1.6527791 79.639886 0 0 -1.69044,-0.86745 l -2e-4,-0.001 -0.02,0.004 a 1.1617888,1.6527791 79.639886 0 0 -0.12425,0.0192 z"
       inkscape:export-xdpi="96"
       inkscape:export-ydpi="96" />
    <path
       id="rect10-3-21-1-63-4-02"
       style="opacity:0.5;fill:#00c096;fill-opacity:1;fill-rule:evenodd;stroke:#4d4d4d;stroke-width:0;stroke-linejoin:round;stroke-miterlimit:100"
       d="m 67.508179,65.981545 a 1.1617888,1.6527791 79.639886 0 0 -0.12299,0.026 l -7.47832,1.36715 a 1.1594506,1.6527791 79.639886 0 0 -0.10709,0.017 1.1594506,1.6527791 79.639886 0 0 -0.10523,0.0218 l -0.0235,0.004 2.3e-4,10e-4 a 1.1594506,1.6527791 79.639886 0 0 -1.28883,1.41048 1.1594506,1.6527791 79.639886 0 0 1.83439,0.84323 1.1594506,1.6527791 79.639886 0 0 0.1409,-0.0303 l 7.37387,-1.34806 a 1.1617888,1.6527791 79.639886 0 0 0.19447,-0.0272 1.1617888,1.6527791 79.639886 0 0 1.41697,-1.44004 1.1617888,1.6527791 79.639886 0 0 -1.69044,-0.86745 l -2e-4,-10e-4 -0.02,0.004 a 1.1617888,1.6527791 79.639886 0 0 -0.12425,0.0192 z"
       inkscape:export-xdpi="96"
       inkscape:export-ydpi="96" />
    <path
       id="rect10-3-21-1-63-4-8"
       style="opacity:0.5;fill:#00c096;fill-opacity:1;fill-rule:evenodd;stroke:#4d4d4d;stroke-width:0;stroke-linejoin:round;stroke-miterlimit:100"
       d="m 76.645769,59.814525 a 1.1617888,1.6527791 79.639886 0 0 -0.12299,0.026 l -7.47832,1.36715 a 1.1594506,1.6527791 79.639886 0 0 -0.10709,0.017 1.1594506,1.6527791 79.639886 0 0 -0.10523,0.0218 l -0.0235,0.004 2.3e-4,10e-4 a 1.1594506,1.6527791 79.639886 0 0 -1.28883,1.41048 1.1594506,1.6527791 79.639886 0 0 1.83439,0.84323 1.1594506,1.6527791 79.639886 0 0 0.1409,-0.0303 l 7.37387,-1.34806 a 1.1617888,1.6527791 79.639886 0 0 0.19447,-0.0272 1.1617888,1.6527791 79.639886 0 0 1.41697,-1.44004 1.1617888,1.6527791 79.639886 0 0 -1.69044,-0.86745 l -2e-4,-0.001 -0.02,0.004 a 1.1617888,1.6527791 79.639886 0 0 -0.12425,0.0192 z"
       inkscape:export-xdpi="96"
       inkscape:export-ydpi="96" />
    <rect
       style="opacity:0.25;fill:url(#linearGradient2082);fill-opacity:1;fill-rule:evenodd;stroke:#4d4d4d;stroke-width:0;stroke-linejoin:round;stroke-miterlimit:4;stroke-dasharray:none;stroke-opacity:1"
       id="rect2058"
       width="80.577568"
       height="14.182938"
       x="-84.215263"
       y="-73.123566"
       transform="matrix(-0.99998447,0.00557237,-0.00593104,-0.99998241,0,0)"
       inkscape:export-xdpi="96"
       inkscape:export-ydpi="96" />
    <path
       id="rect2116"
       style="fill:url(#linearGradient2150);fill-opacity:1;fill-rule:evenodd;stroke:#4d4d4d;stroke-width:0;stroke-linejoin:round;stroke-miterlimit:4;stroke-dasharray:none;stroke-opacity:1"
       d="m 83.652549,35.21905 -0.024,14.309185 -80.3041233,-0.13449 z"
       sodipodi:nodetypes="cccc"
       inkscape:export-xdpi="96"
       inkscape:export-ydpi="96" />
    <text
       xml:space="preserve"
       style="font-size:5.99722px;line-height:0;font-family:Arial;-inkscape-font-specification:Arial;stroke-width:0.264583"
       x="35.40889"
       y="54.697105"
       id="text2154"
       inkscape:export-xdpi="96"
       inkscape:export-ydpi="96"><tspan
         sodipodi:role="line"
         id="tspan2152"
         x="35.40889"
         y="54.697105"
         style="font-size:5.99722px;fill:#666666;stroke-width:0.264583">Nutrient </tspan></text>
  </g>
</svg>
