<?xml version="1.0" encoding="UTF-8"?>
<svg width="1200pt" height="1200pt" version="1.1" viewBox="0 0 1200 1200" xmlns="http://www.w3.org/2000/svg">
 <g>
  <rect width="1200" height="1200"/>
  <path d="m849.39 835.25c-17.758-15.871-40.582-22.672-62.648-30.23-6.5742-2.0391-13.375-4.2305-19.875-6.5-15.793-5.668-52.898-22.672-57.887-53.957-3.1758-21.312 8.7656-40.656 21.539-61.137 12.773-20.48 25.316-40.809 23.879-64.613-2.2656-38.465-38.918-66.352-105.8-80.484-63.176-13.07-96.43-36.574-99.148-69.598-1.4375-16.93 5.9688-32.797 13.828-49.652 7.5195-13.953 12.633-29.078 15.113-44.738 4.457-44.664-35.141-82.676-75.57-93.559v0.003906c-22.031-6.5938-45.074-9.1562-68.016-7.5586-14.508 1.1328-30.23 1.4375-48.289 1.0586-14.359 0-37.332 6.5742-46.777 16.172-6.4531 6.9336-10.121 16-10.301 25.469-0.17969 9.4688 3.1367 18.672 9.3164 25.844 16.324 18.137 41.789 15.113 66.352 12.09 23.199-2.7969 45.344-5.5156 56.754 9.8242 11.41 15.34 2.3438 37.785-7.0273 59.551-2.2656 5.1406-4.6094 10.43-6.5742 15.566-21.539 56 7.5586 127.04 61.969 152.05v0.003906c13.957 5.9336 28.359 10.762 43.074 14.434 31.59 8.8398 61.82 17.379 72.777 44.285 7.5586 18.137 2.4922 37.785-2.5703 58.719-2.9688 11.086-5.1133 22.375-6.4219 33.777-3.3242 39.977 17.078 83.129 54.562 114.41 33.25 28.035 73.605 44.285 112.68 60.457v0.003907c13.621 6.2227 28.277 9.8594 43.227 10.73 8.8047 0.17578 17.469-2.2109 24.938-6.8789 10.891-7.2539 17.656-19.27 18.215-32.344 1.2383-20.031-6.5859-39.562-21.312-53.203zm-59.172-17.684c7.5586 2.3438 14.434 4.7617 21.234 7.5586-23.785 17.441-40.004 43.312-45.34 72.32-10.051-4.2305-20.027-8.5391-29.773-13.301h-0.003907c11.047-26.949 29.719-50.09 53.73-66.578zm-12.695-4.082v0.003907c-22.586 17.145-40.238 39.957-51.164 66.125-9.3086-4.793-18.363-10.066-27.129-15.797 14.383-24.211 35.562-43.656 60.91-55.922l2.9492 1.0586c4.6836 1.4336 9.5195 3.0234 14.281 4.5352zm-54.863-27.129h-0.003906c-24.41 8.5664-46.125 23.426-62.949 43.078-8.6797-9.9297-15.926-21.02-21.539-32.949 22.164-14.258 48.281-21.109 74.59-19.574 2.9883 3.4102 6.2461 6.5703 9.75 9.4453zm-21.312-69.676c-19.977-10.551-41.93-16.832-64.465-18.438 1.2852-6.0469 2.418-12.09 3.0977-18.137l0.003907-0.003906c24.633-0.78906 49.148 3.7461 71.867 13.301-4.3359 7.375-7.9062 15.176-10.656 23.277zm19.57-38.77-3.8555 6.3477 0.003906 0.003906c-24.203-10.609-50.441-15.77-76.855-15.117-0.015625-3.4648-0.29297-6.9258-0.83203-10.352 30.293-19.098 66.578-26.312 101.87-20.254-5 13.969-11.836 27.211-20.332 39.371zm22.672-49.875c-36.738-6.2266-74.492 0.93359-106.4 20.176l-1.1328-2.8711c-0.52734-1.2852-1.1328-2.418-1.6641-3.6289v0.003906c27.922-25.141 62.18-42.176 99.074-49.273 5.9648 7.8516 9.4844 17.289 10.125 27.129 0.19141 2.8203 0.19141 5.6445 0 8.4648zm-114.57 4.6094c-0.98438-1.3594-1.9648-2.5703-3.0234-3.7773h0.003906c17.547-27.512 42.621-49.414 72.246-63.102 9.6602 4.4414 18.621 10.27 26.598 17.305-35.645 8.2656-68.66 25.309-96.051 49.574zm-9.8242-90.688c6.5 2.0391 13.453 3.8555 20.781 5.5156l0.003907 0.003907c-19.723 15.926-33.25 38.25-38.242 63.102-6.5508-3.1914-13.316-5.9219-20.25-8.1602 4.5195-24.102 17.891-45.641 37.48-60.383zm-76.629-100.66c-19.77-17.922-45.562-27.742-72.246-27.508 2.2148-5.5195 4.082-11.176 5.5938-16.926 12.746-7.5156 27.68-10.441 42.32-8.2969 14.641 2.1445 28.105 9.2305 38.164 20.086-0.90625 2.0391-1.8906 4.1562-2.8711 6.1953h-0.003906c-4.2109 8.5742-7.8711 17.41-10.957 26.449zm25.016-68.016v0.003906c-1.0156 8.4297-3.2305 16.676-6.5742 24.484-10.875-10.363-24.594-17.25-39.398-19.777-14.809-2.5312-30.031-0.59375-43.73 5.5703 0.035156-0.65625 0.035156-1.3125 0-1.9648 11.047-12.781 24.668-23.082 39.977-30.23 14.434-5.8945 35.367-6.5742 48.516 3.0234 1.3945 6.1953 1.8008 12.57 1.2109 18.895zm-6.5-33.93c-15.461-4.9609-32.176-4.3438-47.23 1.7383-14.277 6.4688-27.125 15.719-37.785 27.207-0.67578-2.1484-1.5625-4.2266-2.6484-6.1992 2.5039-14.684 9.3789-28.273 19.727-38.992 10.281-9.8672 23.598-15.965 37.785-17.309 12.715 8.4688 23.09 20.008 30.152 33.555zm-157.57 3.7031c-22.672 2.7969-44.512 5.4414-57.133-8.6133-4.3398-5.1641-6.6523-11.727-6.5156-18.469 0.14062-6.7422 2.7227-13.207 7.2734-18.184 11.246-8.3242 24.852-12.848 38.844-12.926h36.047c-5.4375 5.8398-9.5156 12.805-11.941 20.406-2.9414 12.281-1.9648 25.18 2.7969 36.879zm20.555-2.0391c-4.7422-10.273-6.0664-21.793-3.7773-32.875 3.4141-10.309 10.41-19.051 19.723-24.637 8.4453-0.46094 16.914-0.20703 25.316 0.75781-16.969 13.938-25.301 35.812-21.914 57.508-4.1211-0.67578-8.293-1.0039-12.469-0.98047-2.2695 0.14844-4.7617 0.22656-6.8789 0.375zm30.832 4.082 0.003906-0.003906c-2.8555-11.211-1.8633-23.062 2.8242-33.641 4.6875-10.582 12.797-19.277 23.02-24.699 5.8945 1.1328 12.016 2.5703 18.668 4.3086 6 1.6992 11.844 3.9258 17.457 6.6484-11.758 3.293-22.523 9.418-31.363 17.836-9.8203 10.07-16.965 22.438-20.781 35.973-2.9258-2.5977-6.2383-4.7148-9.8242-6.2734zm3.0234 97.41c1.8906-4.9141 4.082-9.8242 6.4219-15.113l1.3594-3.1758h0.003907c27.609-1.3984 54.492 9.1133 73.832 28.867-0.78125 4.5156-1.1094 9.0977-0.98047 13.68-27.016-11.578-57.121-13.812-85.547-6.3477 1.0664-6.0625 2.7109-12.012 4.9102-17.762zm-6.2734 29.246c30.684-8.918 66.426-5.668 88.949 8.1602 0.86328 3.4453 2.0273 6.8086 3.4766 10.051-31.293-4.1445-62.773 6.1758-85.547 28.039-5.4062-14.738-7.7461-30.426-6.875-46.102zm11.41 57.055h0.003906c11.102-11.891 25.184-20.598 40.781-25.223s32.148-4.9961 47.938-1.0742c1.4609 1.8984 3.0234 3.7148 4.6875 5.4414-30.094 6.7148-55.758 26.227-70.281 53.426-9.5273-9.3867-17.352-20.355-23.125-32.418zm31.141 39.977c14.152-28.066 41.238-47.352 72.395-51.539 3.793 2.9219 7.7812 5.5742 11.941 7.9375-23.117 14.176-40.242 36.328-48.141 62.27-5.5312-1.8086-10.953-3.9258-16.246-6.3477-7.1406-3.2539-13.844-7.3906-19.949-12.32zm46.477 21.914v0.003906c7.6914-25.629 25.367-47.09 49.043-59.551 5.2148 2.418 10.73 4.6836 16.703 6.8008-18.195 16.043-30.707 37.547-35.672 61.289-4.9883-1.5117-10.051-2.9492-15.113-4.3086zm70.434 25.617-0.003906 0.003907c4.3359-26.812 19.645-50.609 42.246-65.672 10.746 2.4922 21.324 5.6719 31.664 9.5234-27.254 14.262-50.406 35.254-67.258 60.984-2.0508-1.7305-4.1953-3.3438-6.4258-4.8359zm22.672 94.539 0.45312-1.9648-0.003906 0.003907c22.449 1.3359 44.316 7.6602 64.012 18.516-0.76953 5.3633-0.76953 10.809 0 16.172-22.352-7.8008-46.379-9.4961-69.602-4.9102 1.2148-9.3672 2.9805-18.652 5.2891-27.812zm-6.4219 38.918-0.003906 0.007812c24.445-5.5195 50-3.3281 73.152 6.2734 1.2148 3.5234 2.7305 6.9375 4.5352 10.199-25.117 0.058594-49.719 7.125-71.039 20.406-4.3828-11.797-6.5859-24.293-6.5-36.879zm39.371 87.664-0.003906 0.003906c17.285-20.75 40.441-35.793 66.43-43.148 4.5703 2.9727 9.3438 5.6211 14.281 7.9336-23.449 13.098-43.027 32.152-56.754 55.242-4.082-2.8711-8.0117-5.9688-11.789-9.2188-3.7773-3.25-8.3125-7.1055-12.016-10.809zm109.12 64.16-0.003906 0.003907c4.8125-29.32 21.844-55.223 46.855-71.262 6.8867 3.4648 13.309 7.7812 19.121 12.848l2.0391 1.9648c-23.703 14.281-40.504 37.668-46.477 64.688-3.0234-1.0586-6.0469-2.1914-9.0703-3.4023zm31.59 11.789-0.003907 0.003906c5.2422-25.191 21-46.941 43.301-59.773 3.5859 5.7344 6.1406 12.051 7.5586 18.664-15.516 10.039-26.207 26.031-29.547 44.211-7.1719 0.050781-14.309-0.99219-21.16-3.1016zm39.145-2.0391-0.003906 0.003907c-1.8867 1.2461-3.9141 2.2617-6.043 3.0234 3.1055-11.773 9.9141-22.238 19.422-29.852v2.7188 0.003906c-0.28906 9.6914-5.207 18.656-13.227 24.105z" fill="#fff"/>
 </g>
</svg>
