<?xml version="1.0" encoding="UTF-8"?>
<svg width="1200pt" height="1200pt" version="1.1" viewBox="0 0 1200 1200" xmlns="http://www.w3.org/2000/svg">
 <defs>
  <clipPath id="b">
   <path d="m222.14 508h278.86v196h-278.86z"/>
  </clipPath>
  <clipPath id="a">
   <path d="m695 741h282.86v172h-282.86z"/>
  </clipPath>
 </defs>
 <rect width="1200" height="1200"/>
 <path d="m766.97 578.36c-13.777 41.25-54.555 70.375-82.5 70.375 0 0-11.02 18.027-5.5117 32.273 5.5117 14.25 34.402 22.594 34.402 22.594 8.6719 4.625 18.664 6.1562 28.324 4.3359 9.6602-1.8164 18.41-6.8711 24.812-14.332 0 0 31.488 7.8711 52.98-15.352h-0.003906c-9.9023-9.9336-16.805-22.457-19.914-36.133 8.6562 12.195 19.82 22.395 32.746 29.914 11.809-2.4414 31.488-10.234 29.52-34.793 8.0508-3.7578 14.609-10.102 18.633-18.02 4.0234-7.918 5.2812-16.957 3.5664-25.672-13.422-1.8438-26.098-7.2812-36.684-15.746-1.1797-0.86719 24.168 7.8711 41.012 4.0938h0.003907c4.2383-6.7578 6.5469-14.551 6.6719-22.531s-1.9375-15.84-5.9648-22.73c0 0 15.273-26.371-4.4102-39.359-11.492 3.543-28.969 7.8711-34.402 1.1016h0.003906c11.918-1.0859 23.254-5.6602 32.59-13.148 0.15625-5.8281-1.4297-11.574-4.5547-16.496-3.1289-4.9219-7.6562-8.8008-13-11.133-24.641-40.855-62.977-64.785-80.453-53.371-23.617 15.113-56.68 48.492-41.406 91.629 0-0.47266 37.629 41.172 23.539 82.5z" fill="#fff"/>
 <path d="m404.54 728.63s-75.18 34.793-44.004 75.18c31.172 40.383 78.719 55.105 110.21 40.305 5.4492-2.6562 10.707-5.6836 15.746-9.0547 0 0 24.168 1.4961 31.488-17.398v0.003906c-7.3398-11.355-13.062-23.676-17.004-36.605 7.25 11.02 16.113 20.891 26.293 29.285 5.2695-0.54297 10.297-2.4961 14.551-5.6523 4.2539-3.1602 7.5742-7.4062 9.6133-12.297 0.70703 0 12.043 4.8008 15.742-3.543 0 0-39.359-71.477-47.23-113.67 0.082032 0.31641-87.852 36.289-115.4 53.449z" fill="#fff"/>
 <g clip-path="url(#b)">
  <path d="m497.66 632.43c1.1016-1.4961 2.2031-2.7539 3.3047-4.0938-43.691-18.895-59.59-70.848-64.629-105.64h0.003906c-15.734 14.219-29.93 30.047-42.352 47.23-20.891 27.504-50.988 46.566-84.781 53.688 0 0 45.816-27 51.324-53.688 0 0-21.965 17.32-51.324-26.688-29.363-44.004-82.422-41.879-86.121-16.215-3.6992 25.664 3.6992 23.617 12.832 62.348s14.641 80.609 82.5 102.34c67.855 21.727 122.8 18.5 179.24-59.277z" fill="#fff"/>
 </g>
 <path d="m611.1 477.28c-24.797-19.523-57.152-3.3867-57.152-3.3867-9.7891-3.7891-20.453-4.7344-30.758-2.7305-10.309 2.0078-19.836 6.8828-27.492 14.066-11.395 3.957-22.281 9.2383-32.434 15.746 0 0-3.9375 2.5977-10.234 7.8711 1.9648 26.941 10.305 53.031 24.324 76.121 8.8125 13.855 22.129 24.25 37.707 29.441 57.625-46.445 141.7 13.855 186.41-1.1016 49.516-16.531 53.137-82.812 21.965-101l-0.003906 0.003906c-7.3906-4.0938-15.043-7.6992-22.906-10.785-4.6758-6.6484-11.352-11.629-19.051-14.219-7.7031-2.5898-16.031-2.6562-23.773-0.1875-21.02-22.516-42.43-11.414-45.578-9.6055z" fill="#fff"/>
 <path d="m750.91 735.71c-40.461-9.9961-75.965-24.562-94.465-47.23-1.7734-13.062-1.7734-26.301 0-39.359 0 0-70.219-39.359-123.75-16.375 0 0 24.324 91.551 37.863 114.07 13.543 22.512 33.773 69.824 105.25 97.219l2.9922 1.1797c12.043-32.668 35.582-83.602 72.109-109.5z" fill="#fff"/>
 <g clip-path="url(#a)">
  <path d="m956.21 772.48c-16.609-13.145-101.71-15.742-179.01-31.016-41.484 16.375-68.723 74.785-81.789 110.6 73.918 31.488 188.93 91.238 240.65 41.172 56.758-54.633 47.625-98.871 20.152-120.76z" fill="#fff"/>
 </g>
 <path d="m371.71 398.79c34.086 16.375 62.977 49.199 75.414 64.867 5.5898-17.004 23.617-62.348 63.684-85.02 12.469-7.0859 26.328-11.383 40.617-12.594-9.0352-8.707-19.172-16.199-30.148-22.281-56.602-31.488-158.54-82.105-179.95-41.094-21.414 41.016-15.586 74.078 30.387 96.121z" fill="#fff"/>
 <path d="m465.47 465c21.57-11.73 72.027-30.938 146.18-9.4453-11.34-25.742-26.059-49.859-43.77-71.715-16.805-1.5039-33.676 2.0898-48.41 10.312-31.488 17.871-47.707 53.609-54.004 70.848z" fill="#fff"/>
</svg>
