<?xml version="1.0" encoding="UTF-8"?>
<svg width="1200pt" height="1200pt" version="1.1" viewBox="0 0 1200 1200" xmlns="http://www.w3.org/2000/svg">
 <g>
  <rect width="1200" height="1200"/>
  <path d="m587.02 668.02h-99.391c8.0117-45.926 20.102-93.625 53.438-126.95 29.957-29.965 68.016-39.191 104.28-42.523v98.191c-14.977 2.0625-27.703 5.8555-35.23 13.383-11.074 11.062-18.004 33.555-23.098 57.902z" fill="#fff"/>
  <path d="m365.96 903.1c-9.5234 9.5352-22.027 14.305-34.52 14.305s-25-4.7695-34.527-14.305c-19.074-19.074-19.074-49.977 0-69.051 33.691-33.703 78.422-46.461 116.15-55.969l24.078 94.645c-27.934 7.0312-55.668 14.859-71.184 30.375z" fill="#fff"/>
  <path d="m903.1 296.91c19.074 19.059 19.074 49.992 0 69.051-16.285 16.293-27.832 47.844-38.77 79.336l-92.211-32.164c13.98-40.234 30.336-84.625 61.93-116.22 19.051-19.074 49.996-19.074 69.051 0z" fill="#fff"/>
  <path d="m848.93 487.95c-10.738 27.457-23.668 53.504-43.492 73.328-30.332 30.348-73.211 31.609-114.75 32.691v-97.691c17.078-0.46094 40.406-1.2695 46.922-5.0625 6.6211-6.75 12.953-19.891 19.105-35.43z" fill="#fff"/>
  <path d="m480.18 713.36h98.938c-7.2539 45.797-14.602 88.836-42.254 116.49-15.297 15.297-34.98 24.336-55.938 31.066l-24.137-94.887c5.0781-1.8125 9.1914-3.6211 11.125-5.3281 4.6094-5.9531 8.8789-27.297 12.266-47.344z" fill="#fff"/>
 </g>
</svg>
