<?xml version="1.0" encoding="UTF-8"?>
<svg width="1200pt" height="1200pt" version="1.1" viewBox="0 0 1200 1200" xmlns="http://www.w3.org/2000/svg">
 <defs>
  <clipPath id="b">
   <path d="m749 792h228.86v144h-228.86z"/>
  </clipPath>
  <clipPath id="a">
   <path d="m222.14 270h136.86v160h-136.86z"/>
  </clipPath>
 </defs>
 <rect width="1200" height="1200"/>
 <g clip-path="url(#b)">
  <path d="m800.86 898.63c21.363-9.4766 41.086-18.535 65.164-34.32 29.582-19.453 75.254-56.258 95.625-13.07 44.41 94.289-97.461 83.242-163.46 71.051-46.781-8.6367-32.832-7.9102 2.7148-23.656zm-40.781-39.48c-1.4141-11.273-1.6445-22.855-0.45703-34.129 2.293-21.863 5.9609-26.027 29.352-15.594 11.312 5.0469 22.129 13.723 29.582 23.656 14.066 18.688 12.84 27.137-6.8398 38.984-8.4102 5.0469-18.117 8.3711-27.711 9.25-21.863 1.9883-21.52-3.0977-23.887-22.168zm40.016 31.953c-21.938 10.203-85.688 32.105-15.785 40.246 42.844 5.0078 113.09 4.5859 137.7 1.7969 29.352-3.2852 48.996-3.6289 54.461-37.379 7.1836-44.297-13.375-87.676-64.973-66.848-39.824 16.09-81.75 54.004-111.41 62.184zm26.219-17.238c14.219-8.9453 12.152-22.434 10.473-32.219-4.0508-23.543-33.863-40.855-60.121-46.512-26.832-5.8086-24.156-3.7852-25.645 17.809-1.7969 25.684-4.3203 52.895 5.6953 75.559 3.5547 10.93 62.223-7.9102 69.637-14.602z" fill="#fff" fill-rule="evenodd"/>
 </g>
 <path d="m539.71 338.56c-74.223 59.852-134.57 126.93-171.49 20.332-6.8047-19.645-15.441-32.602-17.773-45.598-7.0703-39.594 26.906-38.715 53.699-39.098 42.348-0.61328 99.98 4.1289 134.88 14.754 48.805 14.867 25.988 29.199 0.64844 49.609zm17.43-54.273c-12.496-6.1914-24.5-4.3555-47.199-8.5625-31.531-5.8477-145.73-24.348-163.01 6.1523-14.945 26.41 1.0312 52.742 10.703 77.93 48.387 125.93 110.64 41.43 193.73-16.738 24.422-17.086 46.32-38.754 5.7695-58.82z" fill="#fff" fill-rule="evenodd"/>
 <path d="m530.5 623.64c-24.117-1.8711-45.633-3.707-15.059-37.875 11.238-12.535 26.371-24.383 34.168-32.984 11.008-12.117 19.301-28.551 28.895-43.113 28.664-43.609 59.852-22.895 73.688 17.809 34.973 102.96 12.461 97.918-44.488 117.33-34.168 11.656-37.57 6.918-51.902-9.0195-11.047-12.309-8.9062-10.891-25.301-12.152zm-46.133-15.059c-7.7578 11.426-2.1406 22.664 13.797 23.352 29.504-0.80078 34.816-7.4141 53.582 15.172 15.938 19.188 30.039 16.895 60.234 7.375 24-7.5664 59.316-14.867 65.125-42.348 0.30469-1.5273-0.95703-80.301-35.812-118.59-25.875-28.434-41.391-23.887-61.84 2.5977-11.582 15.02-19.07 29.125-34.816 46.781-19.035 21.328-39.367 42.922-60.309 65.699z" fill="#fff" fill-rule="evenodd"/>
 <g clip-path="url(#a)">
  <path d="m263.88 281.35c23.277-2.4844 45.441 6.4961 55.801 33.441 7.3008 18.996 19.723 46.438 26.332 70.82 11.543 42.805-9.6328 41.812-33.711 14.484-14.676-16.703-47.812-46.855-67.035-74.297-20.562-29.352-20.066-40.32 18.613-44.449zm-31.723 39.098c18.918 34.207 57.406 78.465 87.867 97.918 42.691 27.25 41.508-1.5664 35.66-34.816-8.3711-47.66-35.125-119.63-94.059-112.82-41.734 4.8164-48.27 15.672-29.43 49.723z" fill="#fff" fill-rule="evenodd"/>
 </g>
 <path d="m487.66 650.28c29.887-6.4961 41.047-7.5664 55.992 18.879 8.4453 14.98 12.766 29.582 24.996 44.336 13.34 16.09 26.484 29.352 35.469 46.82 14.676 28.551-1.8711 22.398-27.176 15.516-22.129-6.0391-38.832-17.621-57.824-37.109-15.137-15.516-36.387-36.117-49.531-57.062-14.715-23.43-9.5938-25.414 18.078-31.418zm-23.43 39.902c14.066 20.637 36.422 42.77 49.074 54.309 21.938 20.066 38.488 35.43 61.953 41.852 29.352 8.0273 54.996 10.051 39.25-26.754-7.5273-17.621-21.555-29.469-35.582-46.477-9.4766-11.465-17.504-28.281-26.066-44.184-14.867-27.594-15.707-34.512-47.621-32.105-13.148 0.99219-26.602 4.2422-37.492 10.586-22.625 13.188-16.738 23.199-3.4414 42.73z" fill="#fff" fill-rule="evenodd"/>
 <path d="m391.11 472.37c14.445-21.441 34.438-8.5625 68.91 23.582 24.348 22.703 68.758 28.016 30.574 76.477-16.203 20.602-31.645 31.109-50.145 8.5234-9.668-11.848-14.219-26.793-22.129-43.188-11.465-23.773-37.227-43.992-27.211-65.355zm-13.375 0.34375c-0.49609 12.078 26.18 71.891 51.633 106.9 23.391 32.145 34.742 32.371 63.254 3.8203 18.5-18.535 31.988-44.793 17.809-64.477-0.38281-0.49609-84.504-64.398-90.047-67.727-11.887-5.4258-43.684 7.7578-42.652 21.48z" fill="#fff" fill-rule="evenodd"/>
 <path d="m477.68 423.45c21.172-17.656 53.891-42.422 77.242-58.398 27.441-18.727 34.781-25.492 33.938 16.473-0.76562 37.684-15.324 93.523-27.289 110.26-17.773 24.844-54.922 10.512-79.918-11.809-31.379-28.055-30.422-34.438-3.9375-56.527zm94.594-82.477c-13.301 4.9297-29.43 23.695-69.406 53.238-36.883 27.25-83.586 46.668-29.695 88.746 33.441 26.105 73.113 54.77 99.18 4.6641 13.223-25.453 25.949-81.941 25.379-119.86-0.23047-15.746-3.7852-34.816-25.453-26.754z" fill="#fff" fill-rule="evenodd"/>
 <path d="m660.64 807.63c12.957-3.668 21.555-9.9766 30.574-15.707 24.039-15.25 37.57-2.293 37.684 24.191 0.11328 30.918-9.8984 75.023-41.965 70.859-17.121-2.2148-42.691-15.441-59.355-31.762-40.055-39.215 3.8203-39.328 33.059-47.582zm65.469-27.48c-46.32-12.957-30.613 8.8672-73.535 19.453-8.4102 2.0625-16.738 3.5938-24.535 5.9609-32.219 9.668-33.977 27.672-11.426 51.75 17.621 18.844 47.43 32.984 71.469 37.035 15.746 2.6367 19.109 2.6367 28.855-10.203 21.137-27.824 34.59-85.305 9.1719-103.96z" fill="#fff" fill-rule="evenodd"/>
 <path d="m614.32 675.73c14.98-6.6875 34.934-14.102 49.992-18.766 19.262-5.9609 18.688-8.1797 27.746 10.051 12.309 24.805 16.664 55.801 3.3242 79.039-15.402 26.867-30.156 28.32-52.703 10.473-17.352-13.723-34.055-35.238-42.691-53.812-9.1328-19.605-5.2734-18.27 14.332-26.984zm-19.34 36.156c11.543 23.391 34.398 48.004 55.992 59.93 15.172 8.3711 26.027 10.547 39.824-1.4922 25.035-21.785 22.32-73.418 11.848-104.26-9.9766-29.312-15.25-26.258-41.352-17.887-11.16 3.5938-24.383 8.2539-36.922 12.727-32.676 11.617-48.348 12.574-29.43 50.984z" fill="#fff" fill-rule="evenodd"/>
 <path d="m879.37 822.8c2.4062 7.3008-9.5547 8.7891-23.238 17.848-0.34375-17.121 13.566-29.66 23.238-17.848zm-1.7578-9.4766c-18.535-8.1797-26.484 5.3125-29.391 22.895-2.9062 17.734 0.38281 18.879 12.422 10.625l17.965-12.344c10.473-7.2227 17.199-13.109-0.99219-21.137z" fill="#fff" fill-rule="evenodd"/>
 <path d="m741.82 756.26c4.1289-3.6289 25.453 11.008 12.84 15.938-13.492 4.2422-20.219-12.152-12.84-15.938zm-8.9453 18.422c7.6836 13.492 14.602 12.652 28.816 5.0469 12.996-7.4531 2.293-21.172-5.9258-27.328-23.008-17.238-30.805-1.2617-22.895 22.281z" fill="#fff" fill-rule="evenodd"/>
 <path d="m388.32 438.2c-1.9883 8.9062-16.281 7.5664-15.059 0.23047 0.83984-15.672 19.875-10.855 15.059-0.23047zm-20.066-13.109c-12.152 11.465-12.344 27.977 17.621 27.059 25.531-4.0508 18.535-49.418-17.621-27.059z" fill="#fff" fill-rule="evenodd"/>
 <path d="m447.3 621.77c-0.99219-5.8867 16.625-10.09 16.625-1.9102 0 14.715-13.34 15.707-16.625 1.9102zm13.375 16.551c18.117-7.4141 10.473-40.129-14.789-26.332-18.535 10.129-1.4141 32.984 14.789 26.332z" fill="#fff" fill-rule="evenodd"/>
 <path d="m737.23 913.42c12.152-3.4414 11.926-27.898-7.5273-24.727-11.543 1.8711-14.445 30.996 7.5273 24.727z" fill="#fff" fill-rule="evenodd"/>
</svg>
