<?xml version="1.0" encoding="UTF-8"?>
<svg width="1200pt" height="1200pt" version="1.1" viewBox="0 0 1200 1200" xmlns="http://www.w3.org/2000/svg">
 <g>
  <rect width="1200" height="1200"/>
  <path d="m559.65 602.86c0 82.762-67.094 149.86-149.86 149.86-82.766 0-149.86-67.094-149.86-149.86 0-82.766 67.094-149.86 149.86-149.86 82.766 0 149.86 67.094 149.86 149.86" fill="#fff"/>
  <path d="m790.21 453c-82.629 0-149.86 67.227-149.86 149.86 0 82.629 67.223 149.86 149.86 149.86 82.629 0 149.86-67.227 149.86-149.86s-67.23-149.86-149.86-149.86zm0 270.91c-66.738 0-121.05-54.297-121.05-121.04 0-66.746 54.312-121.04 121.05-121.04 66.738 0 121.05 54.305 121.05 121.04 0 66.734-54.312 121.04-121.05 121.04z" fill="#fff"/>
  <path d="m422.5 412.25c2.3203 0 4.6328-0.92969 6.3477-2.7734 0.52734-0.57422 54.277-57.352 149.41-57.352 0.91406 0 1.8516 0.007813 2.7812 0.015625 76.605 0.88281 123.71 30.871 140.29 43.574l-42.168 0.78516c-4.7773 0.082032-8.5703 4.0195-8.4727 8.8047 0.089844 4.707 3.9375 8.4883 8.6445 8.4883h0.16016l72.828-1.3594-6.9961-68.031c-0.50781-4.7539-4.8516-8.2305-9.4922-7.7148-4.7539 0.48438-8.207 4.7383-7.7148 9.4844l3.6719 35.691c-18.75-14.531-68.703-46.062-150.55-47.012-104.58-0.98828-162.64 60.27-165.08 62.859-3.2422 3.5156-3.0391 8.9766 0.46094 12.219 1.6602 1.5625 3.7617 2.3203 5.8789 2.3203z" fill="#fff"/>
  <path d="m772.23 789.94c-0.65625 0.58984-66.902 59.277-164.3 57.902-76.578-0.88281-123.67-30.848-140.28-43.559l42.117-0.79297c4.7852-0.089844 8.5781-4.0273 8.4883-8.7969-0.097656-4.7852-4.0117-8.5-8.8125-8.4883l-72.828 1.3594 7.0117 68.031c0.46094 4.4492 4.2188 7.7617 8.5938 7.7617 0.29297 0 0.58984-0.015625 0.89844-0.054687 4.7539-0.49219 8.207-4.7383 7.7148-9.4844l-3.6797-35.715c18.742 14.523 68.711 46.074 150.57 47.027 1.0195 0.015626 2.0195 0.023438 3.0234 0.023438 102.29 0 170.16-59.762 173.02-62.34 3.5664-3.1953 3.8633-8.6602 0.67969-12.195-3.2109-3.5664-8.6523-3.875-12.219-0.67969z" fill="#fff"/>
 </g>
</svg>
