<?xml version="1.0" encoding="UTF-8"?>
<svg width="1200pt" height="1200pt" version="1.1" viewBox="0 0 1200 1200" xmlns="http://www.w3.org/2000/svg">
 <g>
  <rect width="1200" height="1200"/>
  <path d="m742.83 835.03c0 61.969-50.633 112.6-112.6 112.6h-61.211c-62.727 0-112.61-50.633-112.61-112.6 0-4.5352 3.0234-7.5586 7.5586-7.5586s7.5586 3.0234 7.5586 7.5586c0 53.656 43.074 97.488 97.484 97.488h61.211c53.656 0 97.488-43.832 97.488-97.488 0-4.5352 3.0234-7.5586 7.5586-7.5586 4.5352 0.003906 7.5586 3.0273 7.5586 7.5586zm-151.14-341.58v-90.688c-75.57-3.7773-136.03-66.504-136.03-142.83 0-2.2656 0.75391-3.7773 2.2656-5.2891s3.7812-2.2656 6.0469-2.2656c62.723 0 116.38 40.809 136.03 97.488 18.141-56.68 71.793-97.488 135.27-97.488 4.5352 0 7.5586 3.0234 7.5586 7.5586 0 76.328-60.457 139.05-136.03 142.83v90.688h22.672c61.969 0 112.6 50.633 112.6 112.6 0 4.5352-3.0234 7.5586-7.5586 7.5586-4.5352 0-7.5586-3.0234-7.5586-7.5586 0-53.656-43.832-97.488-97.488-97.488h-61.211c-53.656 0-97.488 43.832-97.488 97.488 0 4.5352-3.0234 7.5586-7.5586 7.5586s-7.5586-3.0234-7.5586-7.5586c0-61.969 50.633-112.6 112.6-112.6zm15.117-105.8c64.234-3.7773 116.38-55.922 120.16-120.16-64.238 3.7812-115.63 55.926-120.16 120.16zm-15.117 0c-3.7773-64.234-55.922-116.38-120.16-120.16 1.5117 30.984 15.113 60.457 37.031 83.129 22.668 21.914 51.387 35.516 83.125 37.027zm162.48 376.35-10.582 10.578v-131.49c0-4.5352-3.0234-7.5586-7.5586-7.5586s-7.5586 3.0234-7.5586 7.5586v131.5l-10.578-10.578c-3.0234-3.0234-7.5586-3.0234-10.578 0-3.0234 3.0234-3.0234 7.5586 0 10.578l23.426 23.426c0.75391 0.75391 1.5117 1.5117 2.2656 1.5117h1.5117 0.75391 0.75391 1.5117c0.75391-0.75391 1.5117-0.75391 2.2656-1.5117l23.426-23.426c3.0234-3.0234 3.0234-7.5586 0-10.578-3.0117-3.0273-6.0352-2.2734-9.0586-0.003906zm-297.75 28.715c0 4.5352 3.0234 7.5586 7.5586 7.5586s7.5586-3.0234 7.5586-7.5586v-130.74l10.578 10.578c1.5117 1.5117 3.7773 2.2656 5.2891 2.2656 1.5117 0 3.7773-0.75391 5.2891-2.2656 3.0234-3.0234 3.0234-7.5586 0-10.578l-23.426-24.18c-0.75391-0.75391-1.5117-1.5117-2.2656-1.5117h-1.5117-1.5117-0.75391c-0.75391 0-1.5117 0-2.2656 0.75391s-1.5117 0.75391-2.2656 1.5117l-23.426 23.426c-3.0234 3.0234-3.0234 7.5586 0 10.578 3.0234 3.0234 7.5586 3.0234 10.578 0l10.578-10.578zm169.28 101.27c-1.5117-2.2656-6.8008-9.0703-5.2891-15.871 2.2656-7.5586 9.0703-10.578 16.625-13.602 4.5352-1.5117 9.0703-3.7773 13.602-6.8008 4.5352-3.0234 7.5586-6.8008 11.336-10.578 6.0469-6.0469 11.336-12.09 18.895-11.336 6.8008 0.75391 11.336 6.8008 14.359 11.336 8.3125 14.359 0 34.762-18.895 47.609-9.0703 6.0469-19.648 9.8242-28.719 9.8242-9.0664-0.75781-17.379-4.5352-21.914-10.582zm9.8242-12.09c0 0.75391 0.75391 1.5117 2.2656 3.0234 4.5352 5.2891 17.383 6.0469 30.984-3.0234 13.602-9.0703 17.383-21.16 14.359-27.207-1.5117-2.2656-2.2656-3.0234-2.2656-3.7773-1.5117 1.5117-4.5352 4.5352-6.0469 6.0469-3.7773 3.7773-8.3125 9.0703-14.359 12.848-5.2891 3.7773-11.336 6.0469-15.871 8.3125-3.7773 0.75391-7.5547 2.2656-9.0664 3.7773zm-142.07-150.39c0.75391-22.672 13.602-40.809 30.23-40.809 3.0234 0 11.336 0 15.871 5.2891 4.5352 6.0469 3.0234 13.602 0.75391 21.914-0.75391 4.5352-2.2656 9.8242-2.2656 15.113 0 5.2891 0.75391 10.578 2.2656 15.113 1.5117 8.3125 3.7773 16.625-1.5117 21.914-3.7773 3.7773-8.3125 4.5352-12.848 4.5352h-4.5352c-16.625-1.5078-28.715-20.398-27.961-43.07zm15.113 0.75391c-0.75391 15.871 6.8008 26.449 13.602 27.207h4.5352c0-2.2656-0.75391-6.0469-1.5117-8.3125-1.5117-5.2891-2.2656-12.09-2.2656-18.895 0-6.8008 1.5117-12.848 3.0234-18.137 0.75391-3.0234 1.5117-6.8008 1.5117-8.3125h-3.7773c-6.0469 0-14.359 10.582-15.117 26.449zm111.09-145.09c0-6.8008 5.2891-12.09 9.8242-15.113 12.848-9.8242 34.762-4.5352 49.121 12.848 15.113 17.383 17.383 39.297 6.0469 50.633-1.5117 1.5117-6.8008 6.8008-13.602 6.8008h-1.5117c-7.5586-0.75391-11.336-7.5586-15.871-15.113-2.2656-3.7773-4.5352-8.3125-8.3125-12.848-3.0234-3.7773-7.5586-6.8008-12.09-9.8242-6.8008-5.293-12.848-9.8281-13.605-17.383zm15.871-0.75781c1.5117 1.5117 4.5352 3.7773 6.8008 5.2891 4.5352 3.0234 9.8242 6.8008 14.359 12.09 4.5352 5.2891 7.5586 10.578 9.8242 15.113 1.5117 2.2656 3.0234 6.0469 4.5352 7.5586 0.75391 0 1.5117-0.75391 3.0234-2.2656 5.2891-5.2891 3.7773-18.137-6.8008-30.23-10.578-12.09-23.426-15.113-28.719-10.578-1.5117 1.5117-2.2656 3.0234-3.0234 3.0234zm-40.051-18.137c0 3.0234 0 11.336-6.0469 15.871-3.0234 2.2656-6.0469 3.0234-9.0703 3.0234-3.7773 0-8.3125-1.5117-12.848-2.2656-4.5352-1.5117-9.8242-2.2656-14.359-3.0234-5.2891 0-10.578 0.75391-15.113 1.5117-8.3125 1.5117-16.625 3.0234-21.914-2.2656-5.2891-5.2891-4.5352-12.848-3.7773-18.137 2.2656-16.625 21.16-27.207 43.832-25.695 21.914 0.75 39.297 14.355 39.297 30.98zm-15.117 0c0-6.8008-10.578-15.871-25.695-16.625-15.871-0.75391-27.207 6.0469-27.961 12.848v4.5352c2.2656 0 6.0469-0.75391 8.3125-1.5117 4.5352-0.75391 10.578-1.5117 15.871-1.5117h3.0234c6.8008 0.75391 12.848 2.2656 17.383 3.7773 3.0234 0.75391 6.8008 1.5117 8.3125 1.5117 0.75391 0 0.75391-0.75781 0.75391-3.0234zm-63.477 308.33c-15.113-17.383-18.137-38.543-6.8008-50.633 2.2656-2.2656 7.5586-7.5586 15.113-6.8008 7.5586 0.75391 11.336 7.5586 15.871 15.113 2.2656 3.7773 5.2891 8.3125 8.3125 12.09 3.7773 3.7773 7.5586 6.8008 12.09 9.8242 6.8008 4.5352 13.602 9.0703 14.359 17.383 0 6.8008-5.2891 12.09-9.8242 15.871-4.5352 3.7773-9.8242 5.2891-15.871 5.2891-10.582-0.75781-22.672-6.8008-33.25-18.137zm11.332-9.8242c10.578 12.09 23.426 14.359 29.473 9.8242 2.2656-1.5117 3.0234-2.2656 3.0234-3.0234-1.5117-1.5117-4.5352-3.7773-6.8008-5.2891-4.5352-3.0234-10.578-6.8008-15.113-12.09-4.5352-5.2891-7.5586-10.578-10.578-15.113-1.5117-2.2656-3.7773-6.0469-4.5352-7.5586-0.75391 0-1.5117 0.75391-3.0234 2.2656-4.5352 6.0469-3.0234 19.648 7.5547 30.984zm57.438-18.137c-9.8242-12.848-5.2891-34.008 12.09-49.879 16.625-15.113 38.543-18.137 50.633-6.8008 2.2656 2.2656 8.3125 7.5586 7.5586 15.113-0.75391 7.5586-7.5586 11.336-15.113 15.871-3.7773 2.2656-8.3125 5.2891-12.09 8.3125-3.7773 3.7773-6.8008 7.5586-9.8242 12.09-4.5352 6.8008-9.0703 13.602-17.383 14.359h-0.75391c-6.8047 0.75781-12.098-4.5352-15.117-9.0664zm12.09-9.0703c1.5117 1.5117 2.2656 3.0234 3.0234 3.0234 1.5117-1.5117 3.7773-4.5352 5.2891-6.8008 3.0234-4.5352 6.8008-10.578 12.09-15.113 4.5352-4.5352 10.578-7.5586 15.113-10.578 2.2656-1.5117 6.0469-3.7773 7.5586-4.5352 0-0.75391-0.75391-1.5117-2.2656-3.0234-5.2891-5.2891-18.137-3.0234-30.23 7.5586-12.844 11.332-15.113 24.18-10.578 29.469zm36.273-201.02c6.0469 21.914-0.75391 43.074-16.625 48.367-1.5117 0.75391-5.2891 1.5117-9.0703 1.5117-2.2656 0-5.2891-0.75391-7.5586-2.2656-6.8008-4.5352-6.8008-12.09-7.5586-20.402 0-4.5352-0.75391-9.8242-2.2656-15.113-1.5117-5.2891-3.7773-9.8242-6.8008-14.359-4.5352-7.5586-8.3125-14.359-5.2891-21.914 3.0234-6.8008 10.578-9.0703 15.871-9.8242 16.625-2.2734 33.254 12.086 39.297 34zm-36.273-18.137c-2.2656 0.75391-3.7773 0.75391-4.5352 1.5117 0.75391 2.2656 2.2656 5.2891 3.7773 7.5586 3.0234 4.5352 6.0469 10.578 8.3125 17.383 1.5117 6.0469 2.2656 12.848 3.0234 18.137 0 3.0234 0.75391 6.8008 0.75391 8.3125 0.75391 0 1.5117 0 3.7773-0.75391 6.8008-2.2656 11.336-15.113 6.8008-30.23-4.5273-15.117-14.352-23.43-21.91-21.918zm-86.152-24.938c7.5586 0 12.848 6.0469 17.383 12.848 3.0234 3.7773 6.0469 7.5586 9.8242 11.336 3.7773 3.0234 8.3125 6.0469 13.602 8.3125 7.5586 3.7773 15.113 7.5586 15.871 15.113 0.75391 6.8008-3.7773 12.848-7.5586 16.625-5.2891 5.2891-11.336 7.5586-18.895 7.5586-9.8242 0-21.914-4.5352-31.738-12.848-17.383-15.113-22.672-36.273-12.848-49.121 2.2695-3.0234 6.8047-9.8242 14.359-9.8242zm9.0703 46.852c12.09 10.578 24.938 11.336 30.23 6.8008 1.5117-1.5117 2.2656-3.0234 3.0234-3.7773-1.5117-1.5117-5.2891-3.0234-7.5586-4.5352-5.2891-2.2656-11.336-5.2891-16.625-9.8242-5.2891-4.5352-9.0703-9.0703-12.09-13.602-1.5117-2.2656-3.7773-5.2891-5.2891-6.8008-0.75391 0.75391-1.5117 1.5117-2.2656 2.2656-4.5391 6.0469-1.5195 18.895 10.574 29.473zm68.012 123.18c-21.914-7.5586-34.762-25.695-30.23-41.562 0.75391-3.0234 3.0234-10.578 9.8242-13.602 6.8008-3.0234 13.602 1.5117 21.16 5.2891 3.7773 2.2656 8.3125 5.2891 13.602 6.8008 4.5352 1.5117 9.8242 2.2656 15.113 3.0234 8.3125 0.75391 16.625 1.5117 20.402 8.3125 3.7773 6.0469 1.5117 13.602-0.75391 18.137-4.5352 10.578-16.625 16.625-30.23 16.625-6.0391 0.75391-12.84-0.75781-18.887-3.0234zm4.5352-14.359c15.113 5.2891 27.207 1.5117 30.23-5.2891 0.75391-2.2656 1.5117-3.7773 1.5117-4.5352-2.2656-0.75391-6.0469-0.75391-8.3125-1.5117-5.2891-0.75391-12.09-1.5117-18.895-3.7773-6.0469-2.2656-11.336-5.2891-15.871-8.3125-2.2656-1.5117-6.0469-3.7773-7.5586-3.7773 0 0.75391-0.75391 1.5117-1.5117 3.0234-1.5078 8.3086 6.0469 18.891 20.406 24.18zm115.62-34.008c-0.75391 22.672-13.602 40.809-30.23 40.809h-1.5117c-3.7773 0-10.578-0.75391-14.359-5.2891-4.5352-6.0469-3.0234-13.602-0.75391-21.914 0.75391-4.5352 2.2656-9.8242 2.2656-15.113 0-5.2891-0.75391-10.578-2.2656-15.113-1.5117-8.3125-3.7773-16.625 1.5117-21.914 4.5352-5.2891 12.09-5.2891 17.383-4.5352 17.383 1.5078 28.719 20.398 27.961 43.07zm-15.113-0.75391c0.75391-15.871-6.8008-26.449-13.602-27.207h-4.5352c0 2.2656 0.75391 6.0469 1.5117 8.3125 1.5117 5.2891 2.2656 12.09 2.2656 18.895 0 6.8008-1.5117 12.848-3.0234 18.137-0.75391 3.0234-1.5117 6.8008-1.5117 8.3125h3.7773c6.8047 0 15.117-10.582 15.117-26.449z" fill="#fff"/>
 </g>
</svg>
