<?xml version="1.0" encoding="UTF-8"?>
<svg width="1200pt" height="1200pt" version="1.1" viewBox="0 0 1200 1200" xmlns="http://www.w3.org/2000/svg">
 <g>
  <rect width="1200" height="1200"/>
  <path d="m381.17 643.87c-39.773 27.367-42.156 14.309-42.156 71.434 0 66.855 32.848 113.23 102.97 113.23 40.969 0 82.465-3.2656 107.82-18.594 43.711-26.348 13.844-96.246 2.8555-135.01-17.637-64.008-23.449-84.742-53.555-95.836-55.938-20.672-65.848-3.75-77.734 16.746-9.3711 16.211-19.637 33.898-40.191 48.031zm175.7-254.65c-10.211 10.203-6.6602 41.254-3.5156 53.598 16.699 65.203 71.496 66.023 127.92 49.047 34.785-10.453 66.488-31.168 43.031-70.703-18.762-31.723-67.086-47.629-101.95-49.531-26.883-1.4375-51.895 3.9805-65.48 17.582zm-31.945-31.945c23.332-23.352 60.91-32.848 99.684-30.766 50.707 2.7383 111.64 26.367 138.53 71.727 38.711 65.203-4.5156 117.56-68.941 136.98-80.574 24.172-160.66 11.941-184.53-81.234-7.5977-29.93-8.793-72.676 15.262-96.711zm272.71 231.92c-41.328 4.75-147.38 19.477-142.92 49.227 4.9375 31.348 63.051 41.969 84.672 38.418 11.941-1.9648 23.688-3.5781 35.336-5.0508 11.566-1.4805 92.098-7.2578 84.902-34.203-12.281-45.887-13.539-54.742-61.988-48.387zm105.68 36.758c20.316 75.637-70.176 83.652-122.79 90.598-11.641 1.4805-23.449 3.1602-33.898 4.8203-51.777 8.4883-126.9-18.297-136.45-75.477-13.477-80.691 127.3-95.418 186.21-101.94 72.137-7.8359 89.18 15.977 106.92 82zm-547.8-19.234c12.184-8.3711 19.844-21.555 26.785-33.562 22.262-38.48 40.801-70.238 132.35-36.461 51.824 19.117 59.133 45.309 81.457 126.24 18.059 64.848 50.117 141.62-23.039 185.74-34.32 20.719-83.484 25.109-131.09 25.109-94.953 0-148.21-66.844-148.21-158.47 0-86.695 8.9688-72.148 61.75-108.59z" fill="#fff"/>
 </g>
</svg>
