<?xml version="1.0" encoding="UTF-8"?>
<svg width="1200pt" height="1200pt" version="1.1" viewBox="0 0 1200 1200" xmlns="http://www.w3.org/2000/svg">
 <defs>
  <clipPath id="b">
   <path d="m244 294h454v683.86h-454z"/>
  </clipPath>
  <clipPath id="a">
   <path d="m501 222.14h455v684.86h-455z"/>
  </clipPath>
 </defs>
 <rect width="1200" height="1200"/>
 <g clip-path="url(#b)">
  <path d="m600 977.86c-15.113 0-30.23-3.7773-43.832-11.336l-259.96-142.83c-31.738-17.379-51.387-50.633-51.387-87.66v-272.06c0-37.031 19.648-70.281 51.387-87.664l145.1-80.105c7.5586-3.7773 16.625-1.5117 20.402 6.0469s1.5117 16.625-6.0469 20.402l-145.09 80.109c-21.914 12.09-35.52 35.516-35.52 61.211v272.06c0 25.695 13.602 49.121 35.52 61.211l259.96 142.83c18.137 9.8242 40.055 9.8242 58.191 0l46.855-25.695c7.5586-3.7773 16.625-1.5117 20.402 6.0469 3.7773 7.5586 1.5117 16.625-6.0469 20.402l-46.855 25.695c-12.844 7.5586-27.957 11.336-43.074 11.336z" fill="#fff"/>
 </g>
 <path d="m420.9 414.1c-1.5117 0-3.0234 0-4.5352-0.75391-8.3125-2.2656-12.09-10.578-9.8242-18.895l23.426-74.816-73.305-23.426c-8.3125-2.2656-12.09-11.336-9.8242-18.895 2.2695-8.3125 11.336-12.848 18.895-9.8242l87.664 27.961c7.5586 2.2656 12.09 10.578 9.8242 18.895l-27.961 89.172c-1.5117 6.0469-7.5586 10.582-14.359 10.582z" fill="#fff"/>
 <g clip-path="url(#a)">
  <path d="m750.39 906.07c-5.2891 0-10.578-3.0234-13.602-7.5586-3.7773-7.5586-1.5117-16.625 6.0469-20.402l145.1-80.105c21.914-12.09 35.52-35.52 35.52-61.211l-0.003906-272.82c0-25.695-13.602-49.121-35.52-61.211l-259.21-142.83c-18.137-9.8242-40.055-9.8242-58.191 0l-46.855 25.695c-7.5586 3.7773-16.625 1.5117-20.402-6.0469-3.7773-7.5547-1.5117-16.625 6.0469-20.402l46.855-25.695c27.207-15.113 59.703-15.113 87.664 0l259.96 142.83c31.738 17.383 51.387 50.633 51.387 87.664v272.06c0 37.031-19.648 70.281-51.387 87.664l-145.86 80.102c-2.2656 1.5117-4.5352 2.2695-7.5547 2.2695z" fill="#fff"/>
 </g>
 <path d="m838.05 934.03c-1.5117 0-3.0234 0-4.5352-0.75391l-87.664-27.961c-7.5586-2.2656-12.09-10.578-9.8242-18.895l27.961-89.176c2.2656-8.3125 10.578-12.09 18.895-9.8242 8.3125 2.2656 12.09 10.578 9.8242 18.895l-23.426 74.816 73.305 23.426c8.3125 2.2656 12.09 11.336 9.8242 18.895-1.5117 6.043-7.5586 10.578-14.359 10.578z" fill="#fff"/>
 <path d="m838.05 934.03c-1.5117 0-3.0234 0-4.5352-0.75391l-87.664-27.961c-7.5586-2.2656-12.09-10.578-9.8242-18.895l27.961-89.176c2.2656-8.3125 10.578-12.09 18.895-9.8242 8.3125 2.2656 12.09 10.578 9.8242 18.895l-23.426 74.816 73.305 23.426c8.3125 2.2656 12.09 11.336 9.8242 18.895-1.5117 6.043-7.5586 10.578-14.359 10.578z" fill="#fff"/>
 <path d="m720.91 529.72c-8.3125 0-15.113-6.8008-15.113-15.113s6.8008-15.113 15.113-15.113h13.602c17.383 0 31.738-15.871 31.738-34.008s-14.359-32.496-31.738-33.25h-14.359v-14.359c-0.75391-43.832-33.25-79.352-71.793-79.352-26.449 0-50.633 16.625-63.48 43.074l-5.2891 10.578-11.336-2.2656c-26.449-4.5352-51.387 10.578-60.457 35.52l-3.7773 10.578-11.336-1.5117h-3.0234c-17.383 0-32.496 15.113-32.496 33.25 0 9.0703 3.0234 17.383 9.8242 23.426 6.0469 6.0469 6.0469 15.871 0 21.16-6.0469 6.0469-15.871 6.0469-21.16 0-12.09-12.09-18.137-27.961-18.137-44.586 0-33.25 24.938-60.457 57.434-62.723 15.113-28.719 46.098-46.855 78.594-46.098 18.895-31.738 50.633-50.633 85.395-50.633 51.387 0 94.465 42.32 101.27 95.977 27.207 6.8008 47.609 31.738 47.609 61.211 0 34.762-27.961 63.48-61.211 64.234z" fill="#fff"/>
 <path d="m603.02 884.15c-8.3125 0-15.113-6.8008-15.113-15.113v-47.609c0-8.3125 6.8008-15.113 15.113-15.113s15.113 6.8008 15.113 15.113v47.609c0.003906 8.3125-6.8008 15.113-15.113 15.113z" fill="#fff"/>
 <path d="m624.18 835.03c-10.578 0-20.402-3.7773-27.207-11.336-8.3125-9.0703-11.336-21.16-7.5586-32.496 5.2891-18.895 15.113-34.008 27.207-45.344 31.738-28.719 81.617-28.719 83.883-28.719 8.3125 0 15.113 6.8008 15.113 15.113 0 2.2656 0 48.367-32.496 77.84-12.848 11.336-28.719 19.648-49.121 24.184-3.7734 0.75781-6.7969 0.75781-9.8203 0.75781zm5.2891-15.867m52.902-70.281c-13.602 2.2656-32.496 7.5586-46.098 19.648-8.3125 7.5586-15.113 18.137-18.895 31.738 0 0.75391-0.75391 1.5117 0.75391 3.0234 1.5117 1.5117 3.7773 3.0234 7.5586 1.5117 15.113-3.7773 27.207-9.8242 36.273-17.383 12.848-11.336 18.137-26.449 20.406-38.539z" fill="#fff"/>
 <path d="m587.16 861.48c-3.0234 0-5.2891 0-8.3125-0.75391-15.113-3.7773-27.207-11.336-36.273-20.402-23.426-24.184-23.426-61.969-23.426-63.48 0-8.3125 6.8008-15.113 15.113-15.113 1.5117 0 38.543 0 62.723 24.184 9.0703 9.8242 15.871 21.914 19.648 37.031 3.0234 10.578 0 21.914-8.3125 30.23-5.293 5.2812-12.848 8.3047-21.16 8.3047zm-35.52-68.016c2.2656 8.3125 6.0469 18.137 12.848 24.938 5.2891 6.0469 12.848 9.8242 22.672 12.848v-0.75391c-1.5117-6.8008-5.2891-16.625-12.09-24.184-6.8047-6.8008-15.117-10.582-23.43-12.848z" fill="#fff"/>
 <path d="m674.82 897.75h-137.54c-8.3125 0-15.113-6.8008-15.113-15.113s6.8008-15.113 15.113-15.113h136.79c8.3125 0 15.113 6.8008 15.113 15.113s-6.0469 15.113-14.359 15.113z" fill="#fff"/>
 <path d="m458.68 693.71c-40.809 0-73.305-33.25-73.305-73.305 0-40.809 33.25-73.305 73.305-73.305 22.672 0 43.074 9.8242 57.434 27.207 5.2891 6.8008 4.5352 15.871-2.2656 21.16-6.8008 5.2891-15.871 4.5352-21.16-2.2656-8.3125-10.578-20.402-15.871-34.008-15.871-24.184 0-43.074 19.648-43.074 43.074s19.648 43.074 43.074 43.074c11.336 0 22.672-4.5352 30.23-12.848 6.0469-6.0469 15.113-6.0469 21.16 0 6.0469 6.0469 6.0469 15.113 0 21.16-12.852 14.359-31.742 21.918-51.391 21.918z" fill="#fff"/>
 <path d="m601.51 693.71c-39.297 0-71.039-31.738-71.039-71.039 0-39.297 31.738-71.039 71.039-71.039 39.297 0 71.039 31.738 71.039 71.039 0 39.297-31.742 71.039-71.039 71.039zm0-111.85c-22.672 0-40.809 18.137-40.809 40.809s18.137 40.809 40.809 40.809 40.809-18.137 40.809-40.809-18.137-40.809-40.809-40.809z" fill="#fff"/>
 <path d="m784.39 693.71h-81.617c-8.3125 0-15.113-6.8008-15.113-15.113 0-27.207 27.207-43.074 50.633-56.68 12.848-7.5586 32.496-18.895 32.496-25.695 0-11.336-16.625-15.113-26.449-15.113-9.0703 0-26.449 3.0234-26.449 15.871 0 8.3125-6.8008 15.113-15.113 15.113s-15.113-6.8008-15.113-15.113c0.75391-26.449 24.184-45.344 57.434-45.344 32.496 0 56.68 19.648 56.68 45.344 0 24.938-24.184 38.543-47.609 52.145-8.3125 4.5352-17.383 9.8242-24.184 15.113h55.168c8.3125 0 15.113 6.8008 15.113 15.113-0.75781 7.5586-7.5625 14.359-15.875 14.359z" fill="#fff"/>
</svg>
